G04*
G04 #@! TF.GenerationSoftware,Altium Limited,Altium Designer,24.1.2 (44)*
G04*
G04 Layer_Color=128*
%FSLAX44Y44*%
%MOMM*%
G71*
G04*
G04 #@! TF.SameCoordinates,B6A7EAFD-4425-4944-9F2F-193BF1EFC545*
G04*
G04*
G04 #@! TF.FilePolarity,Positive*
G04*
G01*
G75*
%ADD93C,0.1270*%
D93*
X-863070Y-30000D02*
X-832070D01*
X-847570Y-45500D02*
Y-14500D01*
X-829250Y-30000D02*
X-825250D01*
X-827250Y-32000D02*
Y-28000D01*
X-835202Y-15632D02*
X-831202D01*
X-833202Y-17632D02*
Y-13632D01*
X-849570Y-9680D02*
X-845570D01*
X-847570Y-11680D02*
Y-7680D01*
X-863938Y-15632D02*
X-859938D01*
X-861938Y-17632D02*
Y-13632D01*
X-869890Y-30000D02*
X-865890D01*
X-867890Y-32000D02*
Y-28000D01*
X-863938Y-44369D02*
X-859938D01*
X-861938Y-46368D02*
Y-42368D01*
X-849570Y-50320D02*
X-845570D01*
X-847570Y-52320D02*
Y-48320D01*
X-835202Y-44369D02*
X-831202D01*
X-833202Y-46368D02*
Y-42368D01*
X-863070Y-835410D02*
X-832070D01*
X-847570Y-850910D02*
Y-819910D01*
X-829250Y-835410D02*
X-825250D01*
X-827250Y-837410D02*
Y-833410D01*
X-835202Y-821041D02*
X-831202D01*
X-833202Y-823041D02*
Y-819041D01*
X-849570Y-815090D02*
X-845570D01*
X-847570Y-817090D02*
Y-813090D01*
X-863938Y-821041D02*
X-859938D01*
X-861938Y-823041D02*
Y-819041D01*
X-869890Y-835410D02*
X-865890D01*
X-867890Y-837410D02*
Y-833410D01*
X-863938Y-849778D02*
X-859938D01*
X-861938Y-851778D02*
Y-847778D01*
X-849570Y-855730D02*
X-845570D01*
X-847570Y-857729D02*
Y-853729D01*
X-835202Y-849778D02*
X-831202D01*
X-833202Y-851778D02*
Y-847778D01*
X-45500Y-30000D02*
X-14500D01*
X-30000Y-45500D02*
Y-14500D01*
X-11680Y-30000D02*
X-7680D01*
X-9680Y-32000D02*
Y-28000D01*
X-17632Y-15632D02*
X-13632D01*
X-15632Y-17632D02*
Y-13632D01*
X-32000Y-9680D02*
X-28000D01*
X-30000Y-11680D02*
Y-7680D01*
X-46368Y-15632D02*
X-42368D01*
X-44368Y-17632D02*
Y-13632D01*
X-52320Y-30000D02*
X-48320D01*
X-50320Y-32000D02*
Y-28000D01*
X-46368Y-44368D02*
X-42368D01*
X-44368Y-46368D02*
Y-42368D01*
X-32000Y-50320D02*
X-28000D01*
X-30000Y-52320D02*
Y-48320D01*
X-17632Y-44368D02*
X-13632D01*
X-15632Y-46368D02*
Y-42368D01*
X-321230Y-159220D02*
X-311230D01*
X-316230Y-164220D02*
Y-154220D01*
X-321230Y-109220D02*
X-311230D01*
X-316230Y-114220D02*
Y-104220D01*
X-854360Y-357124D02*
X-842360D01*
X-848360Y-363124D02*
Y-351124D01*
X-854360Y-306324D02*
X-842360D01*
X-848360Y-312324D02*
Y-300324D01*
X-854360Y-331724D02*
X-842360D01*
X-848360Y-337724D02*
Y-325724D01*
X-854360Y-382524D02*
X-842360D01*
X-848360Y-388524D02*
Y-376524D01*
X-821610Y-499180D02*
X-811610D01*
X-816610Y-504180D02*
Y-494180D01*
X-821610Y-549179D02*
X-811610D01*
X-816610Y-554179D02*
Y-544179D01*
X-250380Y-367570D02*
X-242380D01*
X-246380Y-371570D02*
Y-363569D01*
X-250380Y-418369D02*
X-242380D01*
X-246380Y-422369D02*
Y-414370D01*
X-271700Y-596639D02*
X-261700D01*
X-266700Y-601639D02*
Y-591639D01*
X-271700Y-546640D02*
X-261700D01*
X-266700Y-551640D02*
Y-541640D01*
X-244030Y-498380D02*
X-236030D01*
X-240030Y-502379D02*
Y-494380D01*
X-294830Y-498380D02*
X-286830D01*
X-290830Y-502379D02*
Y-494380D01*
X-21160Y-709860D02*
X-15160D01*
X-18160Y-712860D02*
Y-706860D01*
X-21160Y-796360D02*
X-15160D01*
X-18160Y-799360D02*
Y-793360D01*
X-63160Y-709860D02*
X-57160D01*
X-60160Y-712860D02*
Y-706860D01*
X-63160Y-796360D02*
X-57160D01*
X-60160Y-799360D02*
Y-793360D01*
X-58459Y-724209D02*
X-51459D01*
X-54959Y-727710D02*
Y-720709D01*
X-58459Y-782010D02*
X-51459D01*
X-54959Y-785510D02*
Y-778510D01*
X-72580Y-673640D02*
X-64580D01*
X-68580Y-677639D02*
Y-669640D01*
X-21780Y-673640D02*
X-13780D01*
X-17780Y-677639D02*
Y-669640D01*
X-17632Y-849778D02*
X-13632D01*
X-15632Y-851778D02*
Y-847778D01*
X-32000Y-855730D02*
X-28000D01*
X-30000Y-857729D02*
Y-853729D01*
X-46368Y-849778D02*
X-42368D01*
X-44368Y-851778D02*
Y-847778D01*
X-52320Y-835409D02*
X-48320D01*
X-50320Y-837410D02*
Y-833410D01*
X-46368Y-821041D02*
X-42368D01*
X-44368Y-823041D02*
Y-819041D01*
X-32000Y-815090D02*
X-28000D01*
X-30000Y-817090D02*
Y-813090D01*
X-17632Y-821041D02*
X-13632D01*
X-15632Y-823041D02*
Y-819041D01*
X-11680Y-835409D02*
X-7680D01*
X-9680Y-837410D02*
Y-833410D01*
X-45500Y-835409D02*
X-14500D01*
X-30000Y-850910D02*
Y-819910D01*
X-341820Y-733900D02*
X-333820D01*
X-337820Y-737900D02*
Y-729900D01*
X-341820Y-713900D02*
X-333820D01*
X-337820Y-717900D02*
Y-709900D01*
X-366950Y-829310D02*
X-356950D01*
X-361950Y-834310D02*
Y-824310D01*
X-366950Y-778510D02*
X-356950D01*
X-361950Y-783510D02*
Y-773510D01*
X-188350Y-596170D02*
X-178350D01*
X-183350Y-601170D02*
Y-591170D01*
X-138350Y-596170D02*
X-128350D01*
X-133350Y-601170D02*
Y-591170D01*
X-52450Y-572674D02*
X-36450D01*
X-44450Y-580675D02*
Y-564674D01*
X-52450Y-623475D02*
X-36450D01*
X-44450Y-631474D02*
Y-615475D01*
X-300910Y-386619D02*
X-290910D01*
X-295910Y-391619D02*
Y-381619D01*
X-351710Y-386619D02*
X-341710D01*
X-346710Y-391619D02*
Y-381619D01*
X-453810Y-144780D02*
X-442810D01*
X-448310Y-150280D02*
Y-139280D01*
X-453810Y-119380D02*
X-442810D01*
X-448310Y-124880D02*
Y-113880D01*
X-453810Y-93980D02*
X-442810D01*
X-448310Y-99480D02*
Y-88480D01*
X-580810Y-271780D02*
X-569810D01*
X-575310Y-277280D02*
Y-266280D01*
X-453810Y-220980D02*
X-442810D01*
X-448310Y-226480D02*
Y-215480D01*
X-453810Y-195580D02*
X-442810D01*
X-448310Y-201080D02*
Y-190080D01*
X-453810Y-170180D02*
X-442810D01*
X-448310Y-175680D02*
Y-164680D01*
X-453810Y-246380D02*
X-442810D01*
X-448310Y-251880D02*
Y-240880D01*
X-580810Y-93980D02*
X-569810D01*
X-575310Y-99480D02*
Y-88480D01*
X-580810Y-119380D02*
X-569810D01*
X-575310Y-124880D02*
Y-113880D01*
X-580810Y-144780D02*
X-569810D01*
X-575310Y-150280D02*
Y-139280D01*
X-580810Y-170180D02*
X-569810D01*
X-575310Y-175680D02*
Y-164680D01*
X-580810Y-195580D02*
X-569810D01*
X-575310Y-201080D02*
Y-190080D01*
X-580810Y-220980D02*
X-569810D01*
X-575310Y-226480D02*
Y-215480D01*
X-580810Y-246380D02*
X-569810D01*
X-575310Y-251880D02*
Y-240880D01*
X-453810Y-271780D02*
X-442810D01*
X-448310Y-277280D02*
Y-266280D01*
X-608750Y-420370D02*
X-597750D01*
X-603250Y-425870D02*
Y-414870D01*
X-608750Y-394970D02*
X-597750D01*
X-603250Y-400470D02*
Y-389470D01*
X-608750Y-369570D02*
X-597750D01*
X-603250Y-375070D02*
Y-364070D01*
X-735750Y-547370D02*
X-724750D01*
X-730250Y-552870D02*
Y-541870D01*
X-608750Y-496570D02*
X-597750D01*
X-603250Y-502070D02*
Y-491070D01*
X-608750Y-471170D02*
X-597750D01*
X-603250Y-476670D02*
Y-465670D01*
X-608750Y-445770D02*
X-597750D01*
X-603250Y-451270D02*
Y-440270D01*
X-608750Y-521970D02*
X-597750D01*
X-603250Y-527470D02*
Y-516470D01*
X-735750Y-369570D02*
X-724750D01*
X-730250Y-375070D02*
Y-364070D01*
X-735750Y-394970D02*
X-724750D01*
X-730250Y-400470D02*
Y-389470D01*
X-735750Y-420370D02*
X-724750D01*
X-730250Y-425870D02*
Y-414870D01*
X-735750Y-445770D02*
X-724750D01*
X-730250Y-451270D02*
Y-440270D01*
X-735750Y-471170D02*
X-724750D01*
X-730250Y-476670D02*
Y-465670D01*
X-735750Y-496570D02*
X-724750D01*
X-730250Y-502070D02*
Y-491070D01*
X-735750Y-521970D02*
X-724750D01*
X-730250Y-527470D02*
Y-516470D01*
X-608750Y-547370D02*
X-597750D01*
X-603250Y-552870D02*
Y-541870D01*
X-742870Y-287020D02*
X-732870D01*
X-737870Y-292020D02*
Y-282020D01*
X-692870Y-287020D02*
X-682870D01*
X-687870Y-292020D02*
Y-282020D01*
X-542210Y-350520D02*
X-532210D01*
X-537210Y-355520D02*
Y-345520D01*
X-492210Y-350520D02*
X-482210D01*
X-487210Y-355520D02*
Y-345520D01*
X-654470Y-74930D02*
X-643470D01*
X-648970Y-80430D02*
Y-69430D01*
X-654470Y-49530D02*
X-643470D01*
X-648970Y-55030D02*
Y-44030D01*
X-654470Y-24130D02*
X-643470D01*
X-648970Y-29630D02*
Y-18630D01*
X-781470Y-201930D02*
X-770470D01*
X-775970Y-207430D02*
Y-196430D01*
X-654470Y-151130D02*
X-643470D01*
X-648970Y-156630D02*
Y-145630D01*
X-654470Y-125730D02*
X-643470D01*
X-648970Y-131230D02*
Y-120230D01*
X-654470Y-100330D02*
X-643470D01*
X-648970Y-105830D02*
Y-94830D01*
X-654470Y-176530D02*
X-643470D01*
X-648970Y-182030D02*
Y-171030D01*
X-781470Y-24130D02*
X-770470D01*
X-775970Y-29630D02*
Y-18630D01*
X-781470Y-49530D02*
X-770470D01*
X-775970Y-55030D02*
Y-44030D01*
X-781470Y-74930D02*
X-770470D01*
X-775970Y-80430D02*
Y-69430D01*
X-781470Y-100330D02*
X-770470D01*
X-775970Y-105830D02*
Y-94830D01*
X-781470Y-125730D02*
X-770470D01*
X-775970Y-131230D02*
Y-120230D01*
X-781470Y-151130D02*
X-770470D01*
X-775970Y-156630D02*
Y-145630D01*
X-781470Y-176530D02*
X-770470D01*
X-775970Y-182030D02*
Y-171030D01*
X-654470Y-201930D02*
X-643470D01*
X-648970Y-207430D02*
Y-196430D01*
X-119800Y-236220D02*
X-108800D01*
X-114300Y-241720D02*
Y-230720D01*
X-94400Y-236220D02*
X-83400D01*
X-88900Y-241720D02*
Y-230720D01*
X-69000Y-236220D02*
X-58000D01*
X-63500Y-241720D02*
Y-230720D01*
X-246800Y-109220D02*
X-235800D01*
X-241300Y-114720D02*
Y-103720D01*
X-196000Y-236220D02*
X-185000D01*
X-190500Y-241720D02*
Y-230720D01*
X-170600Y-236220D02*
X-159600D01*
X-165100Y-241720D02*
Y-230720D01*
X-145200Y-236220D02*
X-134200D01*
X-139700Y-241720D02*
Y-230720D01*
X-221400Y-236220D02*
X-210400D01*
X-215900Y-241720D02*
Y-230720D01*
X-69000Y-109220D02*
X-58000D01*
X-63500Y-114720D02*
Y-103720D01*
X-94400Y-109220D02*
X-83400D01*
X-88900Y-114720D02*
Y-103720D01*
X-119800Y-109220D02*
X-108800D01*
X-114300Y-114720D02*
Y-103720D01*
X-145200Y-109220D02*
X-134200D01*
X-139700Y-114720D02*
Y-103720D01*
X-170600Y-109220D02*
X-159600D01*
X-165100Y-114720D02*
Y-103720D01*
X-196000Y-109220D02*
X-185000D01*
X-190500Y-114720D02*
Y-103720D01*
X-221400Y-109220D02*
X-210400D01*
X-215900Y-114720D02*
Y-103720D01*
X-246800Y-236220D02*
X-235800D01*
X-241300Y-241720D02*
Y-230720D01*
X-705770Y-828579D02*
X-693770D01*
X-699770Y-834579D02*
Y-822579D01*
X-756570Y-828579D02*
X-744570D01*
X-750570Y-834579D02*
Y-822579D01*
X-781970Y-828579D02*
X-769970D01*
X-775970Y-834579D02*
Y-822579D01*
X-731170Y-828579D02*
X-719170D01*
X-725170Y-834579D02*
Y-822579D01*
X-196500Y-31180D02*
X-184500D01*
X-190500Y-37180D02*
Y-25180D01*
X-145700Y-31180D02*
X-133700D01*
X-139700Y-37180D02*
Y-25180D01*
X-120300Y-31180D02*
X-108300D01*
X-114300Y-37180D02*
Y-25180D01*
X-171100Y-31180D02*
X-159100D01*
X-165100Y-37180D02*
Y-25180D01*
X-781970Y-678180D02*
X-769970D01*
X-775970Y-684180D02*
Y-672180D01*
X-731170Y-678180D02*
X-719170D01*
X-725170Y-684180D02*
Y-672180D01*
X-705770Y-678180D02*
X-693770D01*
X-699770Y-684180D02*
Y-672180D01*
X-756570Y-678180D02*
X-744570D01*
X-750570Y-684180D02*
Y-672180D01*
X-854360Y-182880D02*
X-842360D01*
X-848360Y-188880D02*
Y-176880D01*
X-854360Y-132080D02*
X-842360D01*
X-848360Y-138080D02*
Y-126080D01*
X-854360Y-106680D02*
X-842360D01*
X-848360Y-112680D02*
Y-100680D01*
X-854360Y-157480D02*
X-842360D01*
X-848360Y-163480D02*
Y-151480D01*
X-807370Y-746760D02*
X-795370D01*
X-801370Y-752760D02*
Y-740760D01*
X-781970Y-746760D02*
X-769970D01*
X-775970Y-752760D02*
Y-740760D01*
X-731170Y-746760D02*
X-719170D01*
X-725170Y-752760D02*
Y-740760D01*
X-705770Y-746760D02*
X-693770D01*
X-699770Y-752760D02*
Y-740760D01*
X-756570Y-746760D02*
X-744570D01*
X-750570Y-752760D02*
Y-740760D01*
X-482250Y-43180D02*
X-470250D01*
X-476250Y-49180D02*
Y-37180D01*
X-533050Y-43180D02*
X-521050D01*
X-527050Y-49180D02*
Y-37180D01*
X-558450Y-43180D02*
X-546450D01*
X-552450Y-49180D02*
Y-37180D01*
X-507650Y-43180D02*
X-495650D01*
X-501650Y-49180D02*
Y-37180D01*
X-159320Y-418932D02*
X-156320D01*
X-157821Y-420433D02*
Y-417433D01*
X-156272Y-415885D02*
X-153272D01*
X-154773Y-417384D02*
Y-414384D01*
X-156272Y-421473D02*
X-153272D01*
X-154773Y-422972D02*
Y-419972D01*
X-153392Y-418846D02*
X-150392D01*
X-151892Y-420346D02*
Y-417346D01*
X-28170Y-552450D02*
X-25170D01*
X-26670Y-553950D02*
Y-550950D01*
X-15470Y-628650D02*
X-12470D01*
X-13970Y-630150D02*
Y-627150D01*
X-28170Y-654050D02*
X-25170D01*
X-26670Y-655550D02*
Y-652550D01*
X-15470Y-730250D02*
X-12470D01*
X-13970Y-731750D02*
Y-728750D01*
X-28170Y-755650D02*
X-25170D01*
X-26670Y-757150D02*
Y-754150D01*
X-40870Y-120650D02*
X-37870D01*
X-39370Y-122150D02*
Y-119150D01*
X-53570Y-146050D02*
X-50570D01*
X-52070Y-147550D02*
Y-144550D01*
X-40870Y-171450D02*
X-37870D01*
X-39370Y-172950D02*
Y-169950D01*
X-53570Y-196850D02*
X-50570D01*
X-52070Y-198350D02*
Y-195350D01*
X-40870Y-222250D02*
X-37870D01*
X-39370Y-223750D02*
Y-220750D01*
X-53570Y-247650D02*
X-50570D01*
X-52070Y-249150D02*
Y-246150D01*
X-40870Y-273050D02*
X-37870D01*
X-39370Y-274550D02*
Y-271550D01*
X-40870Y-323850D02*
X-37870D01*
X-39370Y-325350D02*
Y-322350D01*
X-40870Y-374650D02*
X-37870D01*
X-39370Y-376150D02*
Y-373150D01*
X-40870Y-425450D02*
X-37870D01*
X-39370Y-426950D02*
Y-423950D01*
X-53570Y-450850D02*
X-50570D01*
X-52070Y-452350D02*
Y-449350D01*
X-40870Y-476250D02*
X-37870D01*
X-39370Y-477750D02*
Y-474750D01*
X-53570Y-501650D02*
X-50570D01*
X-52070Y-503150D02*
Y-500150D01*
X-40870Y-527050D02*
X-37870D01*
X-39370Y-528550D02*
Y-525550D01*
X-53570Y-603250D02*
X-50570D01*
X-52070Y-604750D02*
Y-601750D01*
X-40870Y-679450D02*
X-37870D01*
X-39370Y-680950D02*
Y-677950D01*
X-40870Y-730250D02*
X-37870D01*
X-39370Y-731750D02*
Y-728750D01*
X-40870Y-781050D02*
X-37870D01*
X-39370Y-782550D02*
Y-779550D01*
X-53570Y-857250D02*
X-50570D01*
X-52070Y-858750D02*
Y-855750D01*
X-66270Y-19050D02*
X-63270D01*
X-64770Y-20550D02*
Y-17550D01*
X-78970Y-44450D02*
X-75970D01*
X-77470Y-45950D02*
Y-42950D01*
X-78970Y-95250D02*
X-75970D01*
X-77470Y-96750D02*
Y-93750D01*
X-78970Y-146050D02*
X-75970D01*
X-77470Y-147550D02*
Y-144550D01*
X-66270Y-171450D02*
X-63270D01*
X-64770Y-172950D02*
Y-169950D01*
X-78970Y-196850D02*
X-75970D01*
X-77470Y-198350D02*
Y-195350D01*
X-66270Y-222250D02*
X-63270D01*
X-64770Y-223750D02*
Y-220750D01*
X-66270Y-273050D02*
X-63270D01*
X-64770Y-274550D02*
Y-271550D01*
X-66270Y-374650D02*
X-63270D01*
X-64770Y-376150D02*
Y-373150D01*
X-66270Y-527050D02*
X-63270D01*
X-64770Y-528550D02*
Y-525550D01*
X-78970Y-552450D02*
X-75970D01*
X-77470Y-553950D02*
Y-550950D01*
X-78970Y-603250D02*
X-75970D01*
X-77470Y-604750D02*
Y-601750D01*
X-66270Y-628650D02*
X-63270D01*
X-64770Y-630150D02*
Y-627150D01*
X-78970Y-654050D02*
X-75970D01*
X-77470Y-655550D02*
Y-652550D01*
X-78970Y-806450D02*
X-75970D01*
X-77470Y-807950D02*
Y-804950D01*
X-91670Y-19050D02*
X-88670D01*
X-90170Y-20550D02*
Y-17550D01*
X-104370Y-95250D02*
X-101370D01*
X-102870Y-96750D02*
Y-93750D01*
X-91670Y-171450D02*
X-88670D01*
X-90170Y-172950D02*
Y-169950D01*
X-104370Y-196850D02*
X-101370D01*
X-102870Y-198350D02*
Y-195350D01*
X-91670Y-222250D02*
X-88670D01*
X-90170Y-223750D02*
Y-220750D01*
X-91670Y-273050D02*
X-88670D01*
X-90170Y-274550D02*
Y-271550D01*
X-91670Y-374650D02*
X-88670D01*
X-90170Y-376150D02*
Y-373150D01*
X-104370Y-450850D02*
X-101370D01*
X-102870Y-452350D02*
Y-449350D01*
X-91670Y-476250D02*
X-88670D01*
X-90170Y-477750D02*
Y-474750D01*
X-104370Y-501650D02*
X-101370D01*
X-102870Y-503150D02*
Y-500150D01*
X-91670Y-527050D02*
X-88670D01*
X-90170Y-528550D02*
Y-525550D01*
X-104370Y-552450D02*
X-101370D01*
X-102870Y-553950D02*
Y-550950D01*
X-91670Y-577850D02*
X-88670D01*
X-90170Y-579350D02*
Y-576350D01*
X-104370Y-603250D02*
X-101370D01*
X-102870Y-604750D02*
Y-601750D01*
X-91670Y-628650D02*
X-88670D01*
X-90170Y-630150D02*
Y-627150D01*
X-104370Y-654050D02*
X-101370D01*
X-102870Y-655550D02*
Y-652550D01*
X-104370Y-704850D02*
X-101370D01*
X-102870Y-706350D02*
Y-703350D01*
X-104370Y-755650D02*
X-101370D01*
X-102870Y-757150D02*
Y-754150D01*
X-91670Y-781050D02*
X-88670D01*
X-90170Y-782550D02*
Y-779550D01*
X-129770Y-44450D02*
X-126770D01*
X-128270Y-45950D02*
Y-42950D01*
X-129770Y-95250D02*
X-126770D01*
X-128270Y-96750D02*
Y-93750D01*
X-129770Y-146050D02*
X-126770D01*
X-128270Y-147550D02*
Y-144550D01*
X-129770Y-196850D02*
X-126770D01*
X-128270Y-198350D02*
Y-195350D01*
X-117070Y-222250D02*
X-114070D01*
X-115570Y-223750D02*
Y-220750D01*
X-129770Y-247650D02*
X-126770D01*
X-128270Y-249150D02*
Y-246150D01*
X-117070Y-374650D02*
X-114070D01*
X-115570Y-376150D02*
Y-373150D01*
X-129770Y-450850D02*
X-126770D01*
X-128270Y-452350D02*
Y-449350D01*
X-117070Y-527050D02*
X-114070D01*
X-115570Y-528550D02*
Y-525550D01*
X-129770Y-552450D02*
X-126770D01*
X-128270Y-553950D02*
Y-550950D01*
X-117070Y-577850D02*
X-114070D01*
X-115570Y-579350D02*
Y-576350D01*
X-117070Y-628650D02*
X-114070D01*
X-115570Y-630150D02*
Y-627150D01*
X-129770Y-654050D02*
X-126770D01*
X-128270Y-655550D02*
Y-652550D01*
X-129770Y-704850D02*
X-126770D01*
X-128270Y-706350D02*
Y-703350D01*
X-155170Y-44450D02*
X-152170D01*
X-153670Y-45950D02*
Y-42950D01*
X-155170Y-95250D02*
X-152170D01*
X-153670Y-96750D02*
Y-93750D01*
X-155170Y-196850D02*
X-152170D01*
X-153670Y-198350D02*
Y-195350D01*
X-142470Y-222250D02*
X-139470D01*
X-140970Y-223750D02*
Y-220750D01*
X-155170Y-247650D02*
X-152170D01*
X-153670Y-249150D02*
Y-246150D01*
X-142470Y-374650D02*
X-139470D01*
X-140970Y-376150D02*
Y-373150D01*
X-155170Y-400050D02*
X-152170D01*
X-153670Y-401550D02*
Y-398550D01*
X-142470Y-527050D02*
X-139470D01*
X-140970Y-528550D02*
Y-525550D01*
X-155170Y-552450D02*
X-152170D01*
X-153670Y-553950D02*
Y-550950D01*
X-142470Y-577850D02*
X-139470D01*
X-140970Y-579350D02*
Y-576350D01*
X-155170Y-603250D02*
X-152170D01*
X-153670Y-604750D02*
Y-601750D01*
X-142470Y-628650D02*
X-139470D01*
X-140970Y-630150D02*
Y-627150D01*
X-155170Y-654050D02*
X-152170D01*
X-153670Y-655550D02*
Y-652550D01*
X-155170Y-704850D02*
X-152170D01*
X-153670Y-706350D02*
Y-703350D01*
X-180570Y-44450D02*
X-177570D01*
X-179070Y-45950D02*
Y-42950D01*
X-180570Y-95250D02*
X-177570D01*
X-179070Y-96750D02*
Y-93750D01*
X-180570Y-196850D02*
X-177570D01*
X-179070Y-198350D02*
Y-195350D01*
X-180570Y-247650D02*
X-177570D01*
X-179070Y-249150D02*
Y-246150D01*
X-180570Y-349250D02*
X-177570D01*
X-179070Y-350750D02*
Y-347750D01*
X-180570Y-400050D02*
X-177570D01*
X-179070Y-401550D02*
Y-398550D01*
X-167870Y-476250D02*
X-164870D01*
X-166370Y-477750D02*
Y-474750D01*
X-167870Y-527050D02*
X-164870D01*
X-166370Y-528550D02*
Y-525550D01*
X-167870Y-577850D02*
X-164870D01*
X-166370Y-579350D02*
Y-576350D01*
X-167870Y-628650D02*
X-164870D01*
X-166370Y-630150D02*
Y-627150D01*
X-167870Y-679450D02*
X-164870D01*
X-166370Y-680950D02*
Y-677950D01*
X-180570Y-704850D02*
X-177570D01*
X-179070Y-706350D02*
Y-703350D01*
X-167870Y-730250D02*
X-164870D01*
X-166370Y-731750D02*
Y-728750D01*
X-180570Y-755650D02*
X-177570D01*
X-179070Y-757150D02*
Y-754150D01*
X-205970Y-44450D02*
X-202970D01*
X-204470Y-45950D02*
Y-42950D01*
X-205970Y-196850D02*
X-202970D01*
X-204470Y-198350D02*
Y-195350D01*
X-205970Y-247650D02*
X-202970D01*
X-204470Y-249150D02*
Y-246150D01*
X-205970Y-298450D02*
X-202970D01*
X-204470Y-299950D02*
Y-296950D01*
X-205970Y-349250D02*
X-202970D01*
X-204470Y-350750D02*
Y-347750D01*
X-205970Y-400050D02*
X-202970D01*
X-204470Y-401550D02*
Y-398550D01*
X-205970Y-450850D02*
X-202970D01*
X-204470Y-452350D02*
Y-449350D01*
X-205970Y-552450D02*
X-202970D01*
X-204470Y-553950D02*
Y-550950D01*
X-205970Y-603250D02*
X-202970D01*
X-204470Y-604750D02*
Y-601750D01*
X-205970Y-654050D02*
X-202970D01*
X-204470Y-655550D02*
Y-652550D01*
X-205970Y-704850D02*
X-202970D01*
X-204470Y-706350D02*
Y-703350D01*
X-218670Y-19050D02*
X-215670D01*
X-217170Y-20550D02*
Y-17550D01*
X-218670Y-69850D02*
X-215670D01*
X-217170Y-71350D02*
Y-68350D01*
X-231370Y-196850D02*
X-228370D01*
X-229870Y-198350D02*
Y-195350D01*
X-231370Y-247650D02*
X-228370D01*
X-229870Y-249150D02*
Y-246150D01*
X-218670Y-323850D02*
X-215670D01*
X-217170Y-325350D02*
Y-322350D01*
X-231370Y-400050D02*
X-228370D01*
X-229870Y-401550D02*
Y-398550D01*
X-218670Y-476250D02*
X-215670D01*
X-217170Y-477750D02*
Y-474750D01*
X-218670Y-527050D02*
X-215670D01*
X-217170Y-528550D02*
Y-525550D01*
X-231370Y-552450D02*
X-228370D01*
X-229870Y-553950D02*
Y-550950D01*
X-218670Y-577850D02*
X-215670D01*
X-217170Y-579350D02*
Y-576350D01*
X-231370Y-603250D02*
X-228370D01*
X-229870Y-604750D02*
Y-601750D01*
X-218670Y-628650D02*
X-215670D01*
X-217170Y-630150D02*
Y-627150D01*
X-244070Y-69850D02*
X-241070D01*
X-242570Y-71350D02*
Y-68350D01*
X-256770Y-95250D02*
X-253770D01*
X-255270Y-96750D02*
Y-93750D01*
X-256770Y-196850D02*
X-253770D01*
X-255270Y-198350D02*
Y-195350D01*
X-244070Y-222250D02*
X-241070D01*
X-242570Y-223750D02*
Y-220750D01*
X-256770Y-247650D02*
X-253770D01*
X-255270Y-249150D02*
Y-246150D01*
X-256770Y-349250D02*
X-253770D01*
X-255270Y-350750D02*
Y-347750D01*
X-256770Y-400050D02*
X-253770D01*
X-255270Y-401550D02*
Y-398550D01*
X-256770Y-501650D02*
X-253770D01*
X-255270Y-503150D02*
Y-500150D01*
X-256770Y-552450D02*
X-253770D01*
X-255270Y-553950D02*
Y-550950D01*
X-244070Y-577850D02*
X-241070D01*
X-242570Y-579350D02*
Y-576350D01*
X-244070Y-628650D02*
X-241070D01*
X-242570Y-630150D02*
Y-627150D01*
X-256770Y-654050D02*
X-253770D01*
X-255270Y-655550D02*
Y-652550D01*
X-256770Y-704850D02*
X-253770D01*
X-255270Y-706350D02*
Y-703350D01*
X-269470Y-69850D02*
X-266470D01*
X-267970Y-71350D02*
Y-68350D01*
X-282170Y-95250D02*
X-279170D01*
X-280670Y-96750D02*
Y-93750D01*
X-269470Y-120650D02*
X-266470D01*
X-267970Y-122150D02*
Y-119150D01*
X-269470Y-171450D02*
X-266470D01*
X-267970Y-172950D02*
Y-169950D01*
X-269470Y-222250D02*
X-266470D01*
X-267970Y-223750D02*
Y-220750D01*
X-282170Y-247650D02*
X-279170D01*
X-280670Y-249150D02*
Y-246150D01*
X-282170Y-298450D02*
X-279170D01*
X-280670Y-299950D02*
Y-296950D01*
X-269470Y-323850D02*
X-266470D01*
X-267970Y-325350D02*
Y-322350D01*
X-282170Y-349250D02*
X-279170D01*
X-280670Y-350750D02*
Y-347750D01*
X-269470Y-374650D02*
X-266470D01*
X-267970Y-376150D02*
Y-373150D01*
X-282170Y-400050D02*
X-279170D01*
X-280670Y-401550D02*
Y-398550D01*
X-269470Y-425450D02*
X-266470D01*
X-267970Y-426950D02*
Y-423950D01*
X-269470Y-527050D02*
X-266470D01*
X-267970Y-528550D02*
Y-525550D01*
X-282170Y-552450D02*
X-279170D01*
X-280670Y-553950D02*
Y-550950D01*
X-269470Y-577850D02*
X-266470D01*
X-267970Y-579350D02*
Y-576350D01*
X-269470Y-628650D02*
X-266470D01*
X-267970Y-630150D02*
Y-627150D01*
X-294870Y-69850D02*
X-291870D01*
X-293370Y-71350D02*
Y-68350D01*
X-307570Y-95250D02*
X-304570D01*
X-306070Y-96750D02*
Y-93750D01*
X-294870Y-120650D02*
X-291870D01*
X-293370Y-122150D02*
Y-119150D01*
X-294870Y-171450D02*
X-291870D01*
X-293370Y-172950D02*
Y-169950D01*
X-307570Y-196850D02*
X-304570D01*
X-306070Y-198350D02*
Y-195350D01*
X-307570Y-298450D02*
X-304570D01*
X-306070Y-299950D02*
Y-296950D01*
X-307570Y-349250D02*
X-304570D01*
X-306070Y-350750D02*
Y-347750D01*
X-294870Y-425450D02*
X-291870D01*
X-293370Y-426950D02*
Y-423950D01*
X-307570Y-450850D02*
X-304570D01*
X-306070Y-452350D02*
Y-449350D01*
X-294870Y-476250D02*
X-291870D01*
X-293370Y-477750D02*
Y-474750D01*
X-294870Y-527050D02*
X-291870D01*
X-293370Y-528550D02*
Y-525550D01*
X-307570Y-552450D02*
X-304570D01*
X-306070Y-553950D02*
Y-550950D01*
X-294870Y-577850D02*
X-291870D01*
X-293370Y-579350D02*
Y-576350D01*
X-307570Y-603250D02*
X-304570D01*
X-306070Y-604750D02*
Y-601750D01*
X-307570Y-654050D02*
X-304570D01*
X-306070Y-655550D02*
Y-652550D01*
X-307570Y-704850D02*
X-304570D01*
X-306070Y-706350D02*
Y-703350D01*
X-307570Y-755650D02*
X-304570D01*
X-306070Y-757150D02*
Y-754150D01*
X-294870Y-781050D02*
X-291870D01*
X-293370Y-782550D02*
Y-779550D01*
X-320270Y-69850D02*
X-317270D01*
X-318770Y-71350D02*
Y-68350D01*
X-332970Y-95250D02*
X-329970D01*
X-331470Y-96750D02*
Y-93750D01*
X-332970Y-146050D02*
X-329970D01*
X-331470Y-147550D02*
Y-144550D01*
X-332970Y-196850D02*
X-329970D01*
X-331470Y-198350D02*
Y-195350D01*
X-320270Y-222250D02*
X-317270D01*
X-318770Y-223750D02*
Y-220750D01*
X-332970Y-247650D02*
X-329970D01*
X-331470Y-249150D02*
Y-246150D01*
X-320270Y-374650D02*
X-317270D01*
X-318770Y-376150D02*
Y-373150D01*
X-332970Y-654050D02*
X-329970D01*
X-331470Y-655550D02*
Y-652550D01*
X-320270Y-679450D02*
X-317270D01*
X-318770Y-680950D02*
Y-677950D01*
X-320270Y-730250D02*
X-317270D01*
X-318770Y-731750D02*
Y-728750D01*
X-332970Y-755650D02*
X-329970D01*
X-331470Y-757150D02*
Y-754150D01*
X-320270Y-831850D02*
X-317270D01*
X-318770Y-833350D02*
Y-830350D01*
X-332970Y-857250D02*
X-329970D01*
X-331470Y-858750D02*
Y-855750D01*
X-345670Y-69850D02*
X-342670D01*
X-344170Y-71350D02*
Y-68350D01*
X-358370Y-95250D02*
X-355370D01*
X-356870Y-96750D02*
Y-93750D01*
X-345670Y-120650D02*
X-342670D01*
X-344170Y-122150D02*
Y-119150D01*
X-345670Y-171450D02*
X-342670D01*
X-344170Y-172950D02*
Y-169950D01*
X-345670Y-222250D02*
X-342670D01*
X-344170Y-223750D02*
Y-220750D01*
X-358370Y-247650D02*
X-355370D01*
X-356870Y-249150D02*
Y-246150D01*
X-345670Y-323850D02*
X-342670D01*
X-344170Y-325350D02*
Y-322350D01*
X-358370Y-349250D02*
X-355370D01*
X-356870Y-350750D02*
Y-347750D01*
X-358370Y-654050D02*
X-355370D01*
X-356870Y-655550D02*
Y-652550D01*
X-358370Y-704850D02*
X-355370D01*
X-356870Y-706350D02*
Y-703350D01*
X-358370Y-755650D02*
X-355370D01*
X-356870Y-757150D02*
Y-754150D01*
X-358370Y-857250D02*
X-355370D01*
X-356870Y-858750D02*
Y-855750D01*
X-371070Y-69850D02*
X-368070D01*
X-369570Y-71350D02*
Y-68350D01*
X-383770Y-146050D02*
X-380770D01*
X-382270Y-147550D02*
Y-144550D01*
X-371070Y-273050D02*
X-368070D01*
X-369570Y-274550D02*
Y-271550D01*
X-383770Y-450850D02*
X-380770D01*
X-382270Y-452350D02*
Y-449350D01*
X-383770Y-501650D02*
X-380770D01*
X-382270Y-503150D02*
Y-500150D01*
X-383770Y-552450D02*
X-380770D01*
X-382270Y-553950D02*
Y-550950D01*
X-383770Y-704850D02*
X-380770D01*
X-382270Y-706350D02*
Y-703350D01*
X-383770Y-755650D02*
X-380770D01*
X-382270Y-757150D02*
Y-754150D01*
X-383770Y-857250D02*
X-380770D01*
X-382270Y-858750D02*
Y-855750D01*
X-396470Y-69850D02*
X-393470D01*
X-394970Y-71350D02*
Y-68350D01*
X-409170Y-95250D02*
X-406170D01*
X-407670Y-96750D02*
Y-93750D01*
X-396470Y-120650D02*
X-393470D01*
X-394970Y-122150D02*
Y-119150D01*
X-409170Y-146050D02*
X-406170D01*
X-407670Y-147550D02*
Y-144550D01*
X-409170Y-196850D02*
X-406170D01*
X-407670Y-198350D02*
Y-195350D01*
X-396470Y-222250D02*
X-393470D01*
X-394970Y-223750D02*
Y-220750D01*
X-409170Y-247650D02*
X-406170D01*
X-407670Y-249150D02*
Y-246150D01*
X-409170Y-298450D02*
X-406170D01*
X-407670Y-299950D02*
Y-296950D01*
X-409170Y-349250D02*
X-406170D01*
X-407670Y-350750D02*
Y-347750D01*
X-409170Y-400050D02*
X-406170D01*
X-407670Y-401550D02*
Y-398550D01*
X-409170Y-450850D02*
X-406170D01*
X-407670Y-452350D02*
Y-449350D01*
X-396470Y-476250D02*
X-393470D01*
X-394970Y-477750D02*
Y-474750D01*
X-409170Y-501650D02*
X-406170D01*
X-407670Y-503150D02*
Y-500150D01*
X-396470Y-527050D02*
X-393470D01*
X-394970Y-528550D02*
Y-525550D01*
X-409170Y-552450D02*
X-406170D01*
X-407670Y-553950D02*
Y-550950D01*
X-396470Y-577850D02*
X-393470D01*
X-394970Y-579350D02*
Y-576350D01*
X-409170Y-603250D02*
X-406170D01*
X-407670Y-604750D02*
Y-601750D01*
X-409170Y-704850D02*
X-406170D01*
X-407670Y-706350D02*
Y-703350D01*
X-409170Y-806450D02*
X-406170D01*
X-407670Y-807950D02*
Y-804950D01*
X-396470Y-831850D02*
X-393470D01*
X-394970Y-833350D02*
Y-830350D01*
X-409170Y-857250D02*
X-406170D01*
X-407670Y-858750D02*
Y-855750D01*
X-434570Y-95250D02*
X-431570D01*
X-433070Y-96750D02*
Y-93750D01*
X-434570Y-146050D02*
X-431570D01*
X-433070Y-147550D02*
Y-144550D01*
X-421870Y-171450D02*
X-418870D01*
X-420370Y-172950D02*
Y-169950D01*
X-434570Y-196850D02*
X-431570D01*
X-433070Y-198350D02*
Y-195350D01*
X-421870Y-222250D02*
X-418870D01*
X-420370Y-223750D02*
Y-220750D01*
X-434570Y-247650D02*
X-431570D01*
X-433070Y-249150D02*
Y-246150D01*
X-421870Y-273050D02*
X-418870D01*
X-420370Y-274550D02*
Y-271550D01*
X-421870Y-323850D02*
X-418870D01*
X-420370Y-325350D02*
Y-322350D01*
X-434570Y-349250D02*
X-431570D01*
X-433070Y-350750D02*
Y-347750D01*
X-421870Y-374650D02*
X-418870D01*
X-420370Y-376150D02*
Y-373150D01*
X-434570Y-400050D02*
X-431570D01*
X-433070Y-401550D02*
Y-398550D01*
X-421870Y-425450D02*
X-418870D01*
X-420370Y-426950D02*
Y-423950D01*
X-434570Y-450850D02*
X-431570D01*
X-433070Y-452350D02*
Y-449350D01*
X-421870Y-476250D02*
X-418870D01*
X-420370Y-477750D02*
Y-474750D01*
X-434570Y-501650D02*
X-431570D01*
X-433070Y-503150D02*
Y-500150D01*
X-421870Y-527050D02*
X-418870D01*
X-420370Y-528550D02*
Y-525550D01*
X-434570Y-552450D02*
X-431570D01*
X-433070Y-553950D02*
Y-550950D01*
X-421870Y-577850D02*
X-418870D01*
X-420370Y-579350D02*
Y-576350D01*
X-434570Y-603250D02*
X-431570D01*
X-433070Y-604750D02*
Y-601750D01*
X-421870Y-628650D02*
X-418870D01*
X-420370Y-630150D02*
Y-627150D01*
X-421870Y-730250D02*
X-418870D01*
X-420370Y-731750D02*
Y-728750D01*
X-434570Y-755650D02*
X-431570D01*
X-433070Y-757150D02*
Y-754150D01*
X-447270Y-19050D02*
X-444270D01*
X-445770Y-20550D02*
Y-17550D01*
X-459970Y-44450D02*
X-456970D01*
X-458470Y-45950D02*
Y-42950D01*
X-459970Y-298450D02*
X-456970D01*
X-458470Y-299950D02*
Y-296950D01*
X-447270Y-323850D02*
X-444270D01*
X-445770Y-325350D02*
Y-322350D01*
X-459970Y-349250D02*
X-456970D01*
X-458470Y-350750D02*
Y-347750D01*
X-447270Y-374650D02*
X-444270D01*
X-445770Y-376150D02*
Y-373150D01*
X-459970Y-400050D02*
X-456970D01*
X-458470Y-401550D02*
Y-398550D01*
X-447270Y-425450D02*
X-444270D01*
X-445770Y-426950D02*
Y-423950D01*
X-459970Y-450850D02*
X-456970D01*
X-458470Y-452350D02*
Y-449350D01*
X-447270Y-476250D02*
X-444270D01*
X-445770Y-477750D02*
Y-474750D01*
X-459970Y-501650D02*
X-456970D01*
X-458470Y-503150D02*
Y-500150D01*
X-447270Y-527050D02*
X-444270D01*
X-445770Y-528550D02*
Y-525550D01*
X-459970Y-603250D02*
X-456970D01*
X-458470Y-604750D02*
Y-601750D01*
X-472670Y-19050D02*
X-469670D01*
X-471170Y-20550D02*
Y-17550D01*
X-485370Y-146050D02*
X-482370D01*
X-483870Y-147550D02*
Y-144550D01*
X-472670Y-171450D02*
X-469670D01*
X-471170Y-172950D02*
Y-169950D01*
X-472670Y-273050D02*
X-469670D01*
X-471170Y-274550D02*
Y-271550D01*
X-485370Y-298450D02*
X-482370D01*
X-483870Y-299950D02*
Y-296950D01*
X-472670Y-323850D02*
X-469670D01*
X-471170Y-325350D02*
Y-322350D01*
X-472670Y-374650D02*
X-469670D01*
X-471170Y-376150D02*
Y-373150D01*
X-485370Y-400050D02*
X-482370D01*
X-483870Y-401550D02*
Y-398550D01*
X-472670Y-425450D02*
X-469670D01*
X-471170Y-426950D02*
Y-423950D01*
X-485370Y-450850D02*
X-482370D01*
X-483870Y-452350D02*
Y-449350D01*
X-472670Y-476250D02*
X-469670D01*
X-471170Y-477750D02*
Y-474750D01*
X-485370Y-501650D02*
X-482370D01*
X-483870Y-503150D02*
Y-500150D01*
X-472670Y-527050D02*
X-469670D01*
X-471170Y-528550D02*
Y-525550D01*
X-485370Y-552450D02*
X-482370D01*
X-483870Y-553950D02*
Y-550950D01*
X-472670Y-577850D02*
X-469670D01*
X-471170Y-579350D02*
Y-576350D01*
X-472670Y-628650D02*
X-469670D01*
X-471170Y-630150D02*
Y-627150D01*
X-485370Y-654050D02*
X-482370D01*
X-483870Y-655550D02*
Y-652550D01*
X-472670Y-679450D02*
X-469670D01*
X-471170Y-680950D02*
Y-677950D01*
X-485370Y-704850D02*
X-482370D01*
X-483870Y-706350D02*
Y-703350D01*
X-498070Y-19050D02*
X-495070D01*
X-496570Y-20550D02*
Y-17550D01*
X-498070Y-273050D02*
X-495070D01*
X-496570Y-274550D02*
Y-271550D01*
X-498070Y-323850D02*
X-495070D01*
X-496570Y-325350D02*
Y-322350D01*
X-498070Y-374650D02*
X-495070D01*
X-496570Y-376150D02*
Y-373150D01*
X-498070Y-425450D02*
X-495070D01*
X-496570Y-426950D02*
Y-423950D01*
X-498070Y-476250D02*
X-495070D01*
X-496570Y-477750D02*
Y-474750D01*
X-510770Y-552450D02*
X-507770D01*
X-509270Y-553950D02*
Y-550950D01*
X-498070Y-577850D02*
X-495070D01*
X-496570Y-579350D02*
Y-576350D01*
X-510770Y-654050D02*
X-507770D01*
X-509270Y-655550D02*
Y-652550D01*
X-498070Y-679450D02*
X-495070D01*
X-496570Y-680950D02*
Y-677950D01*
X-510770Y-755650D02*
X-507770D01*
X-509270Y-757150D02*
Y-754150D01*
X-523470Y-19050D02*
X-520470D01*
X-521970Y-20550D02*
Y-17550D01*
X-536170Y-196850D02*
X-533170D01*
X-534670Y-198350D02*
Y-195350D01*
X-536170Y-247650D02*
X-533170D01*
X-534670Y-249150D02*
Y-246150D01*
X-523470Y-273050D02*
X-520470D01*
X-521970Y-274550D02*
Y-271550D01*
X-536170Y-298450D02*
X-533170D01*
X-534670Y-299950D02*
Y-296950D01*
X-523470Y-374650D02*
X-520470D01*
X-521970Y-376150D02*
Y-373150D01*
X-536170Y-400050D02*
X-533170D01*
X-534670Y-401550D02*
Y-398550D01*
X-523470Y-425450D02*
X-520470D01*
X-521970Y-426950D02*
Y-423950D01*
X-536170Y-450850D02*
X-533170D01*
X-534670Y-452350D02*
Y-449350D01*
X-523470Y-476250D02*
X-520470D01*
X-521970Y-477750D02*
Y-474750D01*
X-536170Y-501650D02*
X-533170D01*
X-534670Y-503150D02*
Y-500150D01*
X-523470Y-628650D02*
X-520470D01*
X-521970Y-630150D02*
Y-627150D01*
X-536170Y-654050D02*
X-533170D01*
X-534670Y-655550D02*
Y-652550D01*
X-523470Y-679450D02*
X-520470D01*
X-521970Y-680950D02*
Y-677950D01*
X-536170Y-755650D02*
X-533170D01*
X-534670Y-757150D02*
Y-754150D01*
X-548870Y-19050D02*
X-545870D01*
X-547370Y-20550D02*
Y-17550D01*
X-548870Y-273050D02*
X-545870D01*
X-547370Y-274550D02*
Y-271550D01*
X-548870Y-323850D02*
X-545870D01*
X-547370Y-325350D02*
Y-322350D01*
X-548870Y-374650D02*
X-545870D01*
X-547370Y-376150D02*
Y-373150D01*
X-561570Y-400050D02*
X-558570D01*
X-560070Y-401550D02*
Y-398550D01*
X-548870Y-425450D02*
X-545870D01*
X-547370Y-426950D02*
Y-423950D01*
X-561570Y-450850D02*
X-558570D01*
X-560070Y-452350D02*
Y-449350D01*
X-548870Y-476250D02*
X-545870D01*
X-547370Y-477750D02*
Y-474750D01*
X-561570Y-501650D02*
X-558570D01*
X-560070Y-503150D02*
Y-500150D01*
X-561570Y-552450D02*
X-558570D01*
X-560070Y-553950D02*
Y-550950D01*
X-548870Y-628650D02*
X-545870D01*
X-547370Y-630150D02*
Y-627150D01*
X-561570Y-654050D02*
X-558570D01*
X-560070Y-655550D02*
Y-652550D01*
X-561570Y-755650D02*
X-558570D01*
X-560070Y-757150D02*
Y-754150D01*
X-574270Y-19050D02*
X-571270D01*
X-572770Y-20550D02*
Y-17550D01*
X-586970Y-44450D02*
X-583970D01*
X-585470Y-45950D02*
Y-42950D01*
X-574270Y-69850D02*
X-571270D01*
X-572770Y-71350D02*
Y-68350D01*
X-586970Y-298450D02*
X-583970D01*
X-585470Y-299950D02*
Y-296950D01*
X-574270Y-323850D02*
X-571270D01*
X-572770Y-325350D02*
Y-322350D01*
X-586970Y-450850D02*
X-583970D01*
X-585470Y-452350D02*
Y-449350D01*
X-586970Y-501650D02*
X-583970D01*
X-585470Y-503150D02*
Y-500150D01*
X-586970Y-552450D02*
X-583970D01*
X-585470Y-553950D02*
Y-550950D01*
X-574270Y-628650D02*
X-571270D01*
X-572770Y-630150D02*
Y-627150D01*
X-574270Y-679450D02*
X-571270D01*
X-572770Y-680950D02*
Y-677950D01*
X-586970Y-704850D02*
X-583970D01*
X-585470Y-706350D02*
Y-703350D01*
X-574270Y-730250D02*
X-571270D01*
X-572770Y-731750D02*
Y-728750D01*
X-586970Y-755650D02*
X-583970D01*
X-585470Y-757150D02*
Y-754150D01*
X-599670Y-19050D02*
X-596670D01*
X-598170Y-20550D02*
Y-17550D01*
X-599670Y-69850D02*
X-596670D01*
X-598170Y-71350D02*
Y-68350D01*
X-612370Y-95250D02*
X-609370D01*
X-610870Y-96750D02*
Y-93750D01*
X-599670Y-120650D02*
X-596670D01*
X-598170Y-122150D02*
Y-119150D01*
X-612370Y-146050D02*
X-609370D01*
X-610870Y-147550D02*
Y-144550D01*
X-599670Y-171450D02*
X-596670D01*
X-598170Y-172950D02*
Y-169950D01*
X-612370Y-196850D02*
X-609370D01*
X-610870Y-198350D02*
Y-195350D01*
X-599670Y-222250D02*
X-596670D01*
X-598170Y-223750D02*
Y-220750D01*
X-612370Y-247650D02*
X-609370D01*
X-610870Y-249150D02*
Y-246150D01*
X-599670Y-273050D02*
X-596670D01*
X-598170Y-274550D02*
Y-271550D01*
X-612370Y-298450D02*
X-609370D01*
X-610870Y-299950D02*
Y-296950D01*
X-599670Y-323850D02*
X-596670D01*
X-598170Y-325350D02*
Y-322350D01*
X-599670Y-730250D02*
X-596670D01*
X-598170Y-731750D02*
Y-728750D01*
X-637770Y-44450D02*
X-634770D01*
X-636270Y-45950D02*
Y-42950D01*
X-637770Y-95250D02*
X-634770D01*
X-636270Y-96750D02*
Y-93750D01*
X-637770Y-146050D02*
X-634770D01*
X-636270Y-147550D02*
Y-144550D01*
X-637770Y-196850D02*
X-634770D01*
X-636270Y-198350D02*
Y-195350D01*
X-637770Y-247650D02*
X-634770D01*
X-636270Y-249150D02*
Y-246150D01*
X-625070Y-273050D02*
X-622070D01*
X-623570Y-274550D02*
Y-271550D01*
X-625070Y-323850D02*
X-622070D01*
X-623570Y-325350D02*
Y-322350D01*
X-625070Y-374650D02*
X-622070D01*
X-623570Y-376150D02*
Y-373150D01*
X-625070Y-425450D02*
X-622070D01*
X-623570Y-426950D02*
Y-423950D01*
X-663170Y-95250D02*
X-660170D01*
X-661670Y-96750D02*
Y-93750D01*
X-663170Y-196850D02*
X-660170D01*
X-661670Y-198350D02*
Y-195350D01*
X-650470Y-222250D02*
X-647470D01*
X-648970Y-223750D02*
Y-220750D01*
X-663170Y-247650D02*
X-660170D01*
X-661670Y-249150D02*
Y-246150D01*
X-650470Y-273050D02*
X-647470D01*
X-648970Y-274550D02*
Y-271550D01*
X-663170Y-298450D02*
X-660170D01*
X-661670Y-299950D02*
Y-296950D01*
X-650470Y-323850D02*
X-647470D01*
X-648970Y-325350D02*
Y-322350D01*
X-650470Y-374650D02*
X-647470D01*
X-648970Y-376150D02*
Y-373150D01*
X-663170Y-400050D02*
X-660170D01*
X-661670Y-401550D02*
Y-398550D01*
X-650470Y-425450D02*
X-647470D01*
X-648970Y-426950D02*
Y-423950D01*
X-650470Y-476250D02*
X-647470D01*
X-648970Y-477750D02*
Y-474750D01*
X-663170Y-552450D02*
X-660170D01*
X-661670Y-553950D02*
Y-550950D01*
X-650470Y-577850D02*
X-647470D01*
X-648970Y-579350D02*
Y-576350D01*
X-663170Y-603250D02*
X-660170D01*
X-661670Y-604750D02*
Y-601750D01*
X-650470Y-628650D02*
X-647470D01*
X-648970Y-630150D02*
Y-627150D01*
X-650470Y-679450D02*
X-647470D01*
X-648970Y-680950D02*
Y-677950D01*
X-663170Y-704850D02*
X-660170D01*
X-661670Y-706350D02*
Y-703350D01*
X-663170Y-755650D02*
X-660170D01*
X-661670Y-757150D02*
Y-754150D01*
X-675870Y-19050D02*
X-672870D01*
X-674370Y-20550D02*
Y-17550D01*
X-688570Y-44450D02*
X-685570D01*
X-687070Y-45950D02*
Y-42950D01*
X-675870Y-69850D02*
X-672870D01*
X-674370Y-71350D02*
Y-68350D01*
X-688570Y-95250D02*
X-685570D01*
X-687070Y-96750D02*
Y-93750D01*
X-688570Y-196850D02*
X-685570D01*
X-687070Y-198350D02*
Y-195350D01*
X-675870Y-273050D02*
X-672870D01*
X-674370Y-274550D02*
Y-271550D01*
X-675870Y-323850D02*
X-672870D01*
X-674370Y-325350D02*
Y-322350D01*
X-675870Y-374650D02*
X-672870D01*
X-674370Y-376150D02*
Y-373150D01*
X-688570Y-400050D02*
X-685570D01*
X-687070Y-401550D02*
Y-398550D01*
X-675870Y-425450D02*
X-672870D01*
X-674370Y-426950D02*
Y-423950D01*
X-688570Y-552450D02*
X-685570D01*
X-687070Y-553950D02*
Y-550950D01*
X-675870Y-577850D02*
X-672870D01*
X-674370Y-579350D02*
Y-576350D01*
X-688570Y-603250D02*
X-685570D01*
X-687070Y-604750D02*
Y-601750D01*
X-688570Y-654050D02*
X-685570D01*
X-687070Y-655550D02*
Y-652550D01*
X-675870Y-679450D02*
X-672870D01*
X-674370Y-680950D02*
Y-677950D01*
X-688570Y-704850D02*
X-685570D01*
X-687070Y-706350D02*
Y-703350D01*
X-675870Y-730250D02*
X-672870D01*
X-674370Y-731750D02*
Y-728750D01*
X-701270Y-19050D02*
X-698270D01*
X-699770Y-20550D02*
Y-17550D01*
X-713970Y-44450D02*
X-710970D01*
X-712470Y-45950D02*
Y-42950D01*
X-701270Y-222250D02*
X-698270D01*
X-699770Y-223750D02*
Y-220750D01*
X-713970Y-704850D02*
X-710970D01*
X-712470Y-706350D02*
Y-703350D01*
X-713970Y-806450D02*
X-710970D01*
X-712470Y-807950D02*
Y-804950D01*
X-726670Y-19050D02*
X-723670D01*
X-725170Y-20550D02*
Y-17550D01*
X-726670Y-69850D02*
X-723670D01*
X-725170Y-71350D02*
Y-68350D01*
X-739370Y-146050D02*
X-736370D01*
X-737870Y-147550D02*
Y-144550D01*
X-739370Y-196850D02*
X-736370D01*
X-737870Y-198350D02*
Y-195350D01*
X-726670Y-323850D02*
X-723670D01*
X-725170Y-325350D02*
Y-322350D01*
X-739370Y-349250D02*
X-736370D01*
X-737870Y-350750D02*
Y-347750D01*
X-726670Y-577850D02*
X-723670D01*
X-725170Y-579350D02*
Y-576350D01*
X-739370Y-603250D02*
X-736370D01*
X-737870Y-604750D02*
Y-601750D01*
X-726670Y-628650D02*
X-723670D01*
X-725170Y-630150D02*
Y-627150D01*
X-739370Y-654050D02*
X-736370D01*
X-737870Y-655550D02*
Y-652550D01*
X-739370Y-704850D02*
X-736370D01*
X-737870Y-706350D02*
Y-703350D01*
X-726670Y-730250D02*
X-723670D01*
X-725170Y-731750D02*
Y-728750D01*
X-739370Y-806450D02*
X-736370D01*
X-737870Y-807950D02*
Y-804950D01*
X-752070Y-19050D02*
X-749070D01*
X-750570Y-20550D02*
Y-17550D01*
X-764770Y-95250D02*
X-761770D01*
X-763270Y-96750D02*
Y-93750D01*
X-764770Y-146050D02*
X-761770D01*
X-763270Y-147550D02*
Y-144550D01*
X-752070Y-171450D02*
X-749070D01*
X-750570Y-172950D02*
Y-169950D01*
X-764770Y-196850D02*
X-761770D01*
X-763270Y-198350D02*
Y-195350D01*
X-764770Y-247650D02*
X-761770D01*
X-763270Y-249150D02*
Y-246150D01*
X-752070Y-273050D02*
X-749070D01*
X-750570Y-274550D02*
Y-271550D01*
X-764770Y-298450D02*
X-761770D01*
X-763270Y-299950D02*
Y-296950D01*
X-752070Y-323850D02*
X-749070D01*
X-750570Y-325350D02*
Y-322350D01*
X-764770Y-349250D02*
X-761770D01*
X-763270Y-350750D02*
Y-347750D01*
X-764770Y-400050D02*
X-761770D01*
X-763270Y-401550D02*
Y-398550D01*
X-764770Y-450850D02*
X-761770D01*
X-763270Y-452350D02*
Y-449350D01*
X-764770Y-501650D02*
X-761770D01*
X-763270Y-503150D02*
Y-500150D01*
X-752070Y-527050D02*
X-749070D01*
X-750570Y-528550D02*
Y-525550D01*
X-752070Y-577850D02*
X-749070D01*
X-750570Y-579350D02*
Y-576350D01*
X-764770Y-654050D02*
X-761770D01*
X-763270Y-655550D02*
Y-652550D01*
X-764770Y-704850D02*
X-761770D01*
X-763270Y-706350D02*
Y-703350D01*
X-752070Y-730250D02*
X-749070D01*
X-750570Y-731750D02*
Y-728750D01*
X-790170Y-44450D02*
X-787170D01*
X-788670Y-45950D02*
Y-42950D01*
X-790170Y-196850D02*
X-787170D01*
X-788670Y-198350D02*
Y-195350D01*
X-777470Y-222250D02*
X-774470D01*
X-775970Y-223750D02*
Y-220750D01*
X-790170Y-247650D02*
X-787170D01*
X-788670Y-249150D02*
Y-246150D01*
X-777470Y-273050D02*
X-774470D01*
X-775970Y-274550D02*
Y-271550D01*
X-777470Y-323850D02*
X-774470D01*
X-775970Y-325350D02*
Y-322350D01*
X-777470Y-476250D02*
X-774470D01*
X-775970Y-477750D02*
Y-474750D01*
X-790170Y-501650D02*
X-787170D01*
X-788670Y-503150D02*
Y-500150D01*
X-777470Y-527050D02*
X-774470D01*
X-775970Y-528550D02*
Y-525550D01*
X-777470Y-577850D02*
X-774470D01*
X-775970Y-579350D02*
Y-576350D01*
X-790170Y-654050D02*
X-787170D01*
X-788670Y-655550D02*
Y-652550D01*
X-777470Y-730250D02*
X-774470D01*
X-775970Y-731750D02*
Y-728750D01*
X-777470Y-781050D02*
X-774470D01*
X-775970Y-782550D02*
Y-779550D01*
X-802870Y-19050D02*
X-799870D01*
X-801370Y-20550D02*
Y-17550D01*
X-815570Y-44450D02*
X-812570D01*
X-814070Y-45950D02*
Y-42950D01*
X-802870Y-69850D02*
X-799870D01*
X-801370Y-71350D02*
Y-68350D01*
X-815570Y-95250D02*
X-812570D01*
X-814070Y-96750D02*
Y-93750D01*
X-815570Y-146050D02*
X-812570D01*
X-814070Y-147550D02*
Y-144550D01*
X-815570Y-196850D02*
X-812570D01*
X-814070Y-198350D02*
Y-195350D01*
X-802870Y-222250D02*
X-799870D01*
X-801370Y-223750D02*
Y-220750D01*
X-815570Y-247650D02*
X-812570D01*
X-814070Y-249150D02*
Y-246150D01*
X-802870Y-273050D02*
X-799870D01*
X-801370Y-274550D02*
Y-271550D01*
X-815570Y-298450D02*
X-812570D01*
X-814070Y-299950D02*
Y-296950D01*
X-802870Y-323850D02*
X-799870D01*
X-801370Y-325350D02*
Y-322350D01*
X-815570Y-349250D02*
X-812570D01*
X-814070Y-350750D02*
Y-347750D01*
X-815570Y-400050D02*
X-812570D01*
X-814070Y-401550D02*
Y-398550D01*
X-815570Y-450850D02*
X-812570D01*
X-814070Y-452350D02*
Y-449350D01*
X-802870Y-476250D02*
X-799870D01*
X-801370Y-477750D02*
Y-474750D01*
X-802870Y-527050D02*
X-799870D01*
X-801370Y-528550D02*
Y-525550D01*
X-802870Y-577850D02*
X-799870D01*
X-801370Y-579350D02*
Y-576350D01*
X-815570Y-654050D02*
X-812570D01*
X-814070Y-655550D02*
Y-652550D01*
X-802870Y-679450D02*
X-799870D01*
X-801370Y-680950D02*
Y-677950D01*
X-815570Y-704850D02*
X-812570D01*
X-814070Y-706350D02*
Y-703350D01*
X-802870Y-831850D02*
X-799870D01*
X-801370Y-833350D02*
Y-830350D01*
X-815570Y-857250D02*
X-812570D01*
X-814070Y-858750D02*
Y-855750D01*
X-828270Y-69850D02*
X-825270D01*
X-826770Y-71350D02*
Y-68350D01*
X-828270Y-120650D02*
X-825270D01*
X-826770Y-122150D02*
Y-119150D01*
X-840970Y-146050D02*
X-837970D01*
X-839470Y-147550D02*
Y-144550D01*
X-828270Y-171450D02*
X-825270D01*
X-826770Y-172950D02*
Y-169950D01*
X-840970Y-196850D02*
X-837970D01*
X-839470Y-198350D02*
Y-195350D01*
X-828270Y-222250D02*
X-825270D01*
X-826770Y-223750D02*
Y-220750D01*
X-840970Y-247650D02*
X-837970D01*
X-839470Y-249150D02*
Y-246150D01*
X-828270Y-273050D02*
X-825270D01*
X-826770Y-274550D02*
Y-271550D01*
X-828270Y-425450D02*
X-825270D01*
X-826770Y-426950D02*
Y-423950D01*
X-828270Y-476250D02*
X-825270D01*
X-826770Y-477750D02*
Y-474750D01*
X-840970Y-552450D02*
X-837970D01*
X-839470Y-553950D02*
Y-550950D01*
X-828270Y-577850D02*
X-825270D01*
X-826770Y-579350D02*
Y-576350D01*
X-840970Y-654050D02*
X-837970D01*
X-839470Y-655550D02*
Y-652550D01*
X-828270Y-679450D02*
X-825270D01*
X-826770Y-680950D02*
Y-677950D01*
X-840970Y-704850D02*
X-837970D01*
X-839470Y-706350D02*
Y-703350D01*
X-828270Y-730250D02*
X-825270D01*
X-826770Y-731750D02*
Y-728750D01*
X-840970Y-755650D02*
X-837970D01*
X-839470Y-757150D02*
Y-754150D01*
X-828270Y-781050D02*
X-825270D01*
X-826770Y-782550D02*
Y-779550D01*
X-853670Y-69850D02*
X-850670D01*
X-852170Y-71350D02*
Y-68350D01*
X-866370Y-95250D02*
X-863370D01*
X-864870Y-96750D02*
Y-93750D01*
X-866370Y-146050D02*
X-863370D01*
X-864870Y-147550D02*
Y-144550D01*
X-866370Y-196850D02*
X-863370D01*
X-864870Y-198350D02*
Y-195350D01*
X-853670Y-222250D02*
X-850670D01*
X-852170Y-223750D02*
Y-220750D01*
X-866370Y-247650D02*
X-863370D01*
X-864870Y-249150D02*
Y-246150D01*
X-853670Y-273050D02*
X-850670D01*
X-852170Y-274550D02*
Y-271550D01*
X-866370Y-298450D02*
X-863370D01*
X-864870Y-299950D02*
Y-296950D01*
X-866370Y-349250D02*
X-863370D01*
X-864870Y-350750D02*
Y-347750D01*
X-866370Y-400050D02*
X-863370D01*
X-864870Y-401550D02*
Y-398550D01*
X-853670Y-425450D02*
X-850670D01*
X-852170Y-426950D02*
Y-423950D01*
X-866370Y-450850D02*
X-863370D01*
X-864870Y-452350D02*
Y-449350D01*
X-866370Y-501650D02*
X-863370D01*
X-864870Y-503150D02*
Y-500150D01*
X-853670Y-527050D02*
X-850670D01*
X-852170Y-528550D02*
Y-525550D01*
X-866370Y-552450D02*
X-863370D01*
X-864870Y-553950D02*
Y-550950D01*
X-853670Y-577850D02*
X-850670D01*
X-852170Y-579350D02*
Y-576350D01*
X-678410Y-632206D02*
X-675410D01*
X-676910Y-633706D02*
Y-630706D01*
X-693650Y-630174D02*
X-690650D01*
X-692150Y-631674D02*
Y-628674D01*
X-552172Y-527558D02*
X-549172D01*
X-550672Y-529058D02*
Y-526058D01*
X-296140Y-731012D02*
X-293140D01*
X-294640Y-732512D02*
Y-729512D01*
X-173458Y-782828D02*
X-170458D01*
X-171958Y-784328D02*
Y-781328D01*
X-164568Y-795528D02*
X-161568D01*
X-163068Y-797028D02*
Y-794028D01*
X-526772Y-784860D02*
X-523772D01*
X-525272Y-786360D02*
Y-783360D01*
X-542012Y-793750D02*
X-539012D01*
X-540512Y-795250D02*
Y-792250D01*
X-472924Y-753110D02*
X-469924D01*
X-471424Y-754610D02*
Y-751610D01*
X-472924Y-740664D02*
X-469924D01*
X-471424Y-742164D02*
Y-739164D01*
X-473178Y-727964D02*
X-470178D01*
X-471678Y-729464D02*
Y-726464D01*
X-499086Y-629158D02*
X-496086D01*
X-497586Y-630658D02*
Y-627658D01*
X-612116Y-664464D02*
X-609116D01*
X-610616Y-665964D02*
Y-662964D01*
X-612116Y-677164D02*
X-609116D01*
X-610616Y-678664D02*
Y-675664D01*
X-612317Y-702257D02*
X-609317D01*
X-610817Y-703757D02*
Y-700757D01*
X-612116Y-689610D02*
X-609116D01*
X-610616Y-691110D02*
Y-688110D01*
X-254230Y-749300D02*
X-251230D01*
X-252730Y-750800D02*
Y-747800D01*
X-221210Y-782320D02*
X-218210D01*
X-219710Y-783820D02*
Y-780820D01*
X-90400Y-746760D02*
X-87400D01*
X-88900Y-748260D02*
Y-745260D01*
X-54840Y-755650D02*
X-51840D01*
X-53340Y-757150D02*
Y-754150D01*
M02*
