G04*
G04 #@! TF.GenerationSoftware,Altium Limited,Altium Designer,24.1.2 (44)*
G04*
G04 Layer_Color=8388736*
%FSLAX44Y44*%
%MOMM*%
G71*
G04*
G04 #@! TF.SameCoordinates,B6A7EAFD-4425-4944-9F2F-193BF1EFC545*
G04*
G04*
G04 #@! TF.FilePolarity,Negative*
G04*
G01*
G75*
%ADD30R,5.1016X5.1016*%
%ADD31R,2.2016X1.0516*%
%ADD32R,1.0516X2.2016*%
%ADD33R,0.9081X0.9656*%
%ADD34R,0.9656X0.9081*%
%ADD35R,0.9016X0.9016*%
%ADD36R,2.1016X2.1016*%
%ADD37R,1.2000X0.6500*%
%ADD38R,1.2000X0.4000*%
%ADD39R,1.3516X0.8016*%
%ADD40R,1.0500X0.9500*%
%ADD41R,1.9016X1.2016*%
%ADD42R,4.3016X1.8516*%
%ADD43R,1.2516X3.3016*%
%ADD44R,10.6800X8.6100*%
%ADD45R,2.1016X2.1016*%
%ADD46O,1.8466X0.6616*%
%ADD47R,2.4416X3.7016*%
%ADD48R,2.6016X1.2016*%
%ADD49C,5.1500*%
%ADD50C,0.5500*%
%ADD51C,1.7016*%
%ADD52O,2.3500X1.7500*%
%ADD53R,2.3500X1.7500*%
%ADD54C,1.9500*%
%ADD55O,1.9000X1.3000*%
%ADD56O,2.1000X1.2000*%
%ADD57C,0.8500*%
%ADD58C,1.4016*%
%ADD59C,2.5016*%
%ADD60C,1.7500*%
%ADD61R,1.7500X1.7500*%
%ADD62R,1.7500X1.7500*%
%ADD63O,1.7500X2.3500*%
%ADD64R,1.7500X2.3500*%
G36*
X-225806Y-64516D02*
X-396240D01*
X-410972Y-49784D01*
X-439166D01*
X-439132Y-2794D01*
X-225806D01*
Y-64516D01*
D02*
G37*
G36*
X-3302Y-521716D02*
X-31089D01*
Y-104293D01*
X-51816Y-83566D01*
X-78994D01*
Y-57658D01*
X-3302D01*
Y-521716D01*
D02*
G37*
G36*
X-744728Y-643382D02*
X-745236Y-643890D01*
X-852170D01*
Y-794756D01*
X-810260Y-795454D01*
X-810260Y-803402D01*
X-874522D01*
Y-604774D01*
X-744728D01*
Y-643382D01*
D02*
G37*
G36*
X-69088Y-862346D02*
X-306070Y-862600D01*
Y-835660D01*
X-182118D01*
X-168656Y-822198D01*
X-69088D01*
Y-862346D01*
D02*
G37*
D30*
X-531949Y-715778D02*
D03*
D31*
X-632117Y-791209D02*
D03*
Y-778509D02*
D03*
Y-765809D02*
D03*
Y-753109D02*
D03*
Y-740409D02*
D03*
Y-727709D02*
D03*
Y-715009D02*
D03*
Y-702309D02*
D03*
Y-689609D02*
D03*
Y-676909D02*
D03*
Y-664209D02*
D03*
Y-651509D02*
D03*
Y-638809D02*
D03*
Y-626109D02*
D03*
X-452120Y-626110D02*
D03*
Y-638810D02*
D03*
Y-651510D02*
D03*
Y-664210D02*
D03*
Y-676910D02*
D03*
Y-689610D02*
D03*
Y-702310D02*
D03*
Y-715010D02*
D03*
Y-727710D02*
D03*
Y-740410D02*
D03*
Y-753110D02*
D03*
Y-765810D02*
D03*
Y-778510D02*
D03*
Y-791210D02*
D03*
D32*
X-599268Y-610910D02*
D03*
X-586568D02*
D03*
X-573868D02*
D03*
X-561169D02*
D03*
X-548469D02*
D03*
X-535769Y-610908D02*
D03*
X-523069D02*
D03*
X-510368D02*
D03*
X-497668D02*
D03*
X-484968D02*
D03*
D33*
X-704140Y-144216D02*
D03*
X-719208D02*
D03*
X-704140Y-160410D02*
D03*
X-719208D02*
D03*
X-704140Y-176728D02*
D03*
X-719208D02*
D03*
X-704140Y-94940D02*
D03*
X-719208D02*
D03*
X-704140Y-111146D02*
D03*
X-719208D02*
D03*
X-704140Y-127764D02*
D03*
X-719208D02*
D03*
X-661176Y-439623D02*
D03*
X-676244D02*
D03*
X-661176Y-456133D02*
D03*
X-676244D02*
D03*
X-661263Y-472643D02*
D03*
X-676330D02*
D03*
X-661176Y-488899D02*
D03*
X-676244D02*
D03*
X-661142Y-505148D02*
D03*
X-676210D02*
D03*
X-661176Y-521665D02*
D03*
X-676244D02*
D03*
X-503636Y-196441D02*
D03*
X-518703D02*
D03*
X-503803Y-229707D02*
D03*
X-518871D02*
D03*
X-503890Y-246225D02*
D03*
X-518957D02*
D03*
X-503636Y-163675D02*
D03*
X-518703D02*
D03*
X-503636Y-179931D02*
D03*
X-518703D02*
D03*
X-503890Y-212951D02*
D03*
X-518957D02*
D03*
X-65705Y-476480D02*
D03*
X-80772D02*
D03*
X-65705Y-498070D02*
D03*
X-80772D02*
D03*
X-255097Y-452659D02*
D03*
X-240030D02*
D03*
Y-470439D02*
D03*
X-255097D02*
D03*
X-102596Y-722129D02*
D03*
X-117664D02*
D03*
X-102596Y-798329D02*
D03*
X-117664D02*
D03*
X-102596Y-772929D02*
D03*
X-117664D02*
D03*
X-102596Y-746990D02*
D03*
X-117664D02*
D03*
X-549737Y-576021D02*
D03*
X-534670D02*
D03*
X-549824Y-558069D02*
D03*
X-534756D02*
D03*
X-549824Y-540289D02*
D03*
X-534756D02*
D03*
X-310977Y-324389D02*
D03*
X-295910D02*
D03*
D34*
X-215880Y-184572D02*
D03*
Y-169504D02*
D03*
X-198930Y-184572D02*
D03*
Y-169504D02*
D03*
X-182616Y-184678D02*
D03*
Y-169610D02*
D03*
X-166106Y-184678D02*
D03*
Y-169610D02*
D03*
X-133670Y-184678D02*
D03*
Y-169610D02*
D03*
X-149850Y-184678D02*
D03*
Y-169610D02*
D03*
X-451358Y-576748D02*
D03*
Y-561680D02*
D03*
X-317754Y-651596D02*
D03*
Y-666664D02*
D03*
X-240030Y-736427D02*
D03*
Y-721360D02*
D03*
Y-765166D02*
D03*
Y-780233D02*
D03*
X-392430Y-733900D02*
D03*
Y-718833D02*
D03*
D35*
X-273945Y-452625D02*
D03*
X-289935Y-452695D02*
D03*
D36*
X-139348Y-673640D02*
D03*
X-183350D02*
D03*
D37*
X-65660Y-721110D02*
D03*
Y-729110D02*
D03*
Y-777110D02*
D03*
Y-785110D02*
D03*
D38*
Y-735610D02*
D03*
Y-740610D02*
D03*
Y-745610D02*
D03*
Y-750610D02*
D03*
Y-755610D02*
D03*
Y-760610D02*
D03*
Y-765610D02*
D03*
Y-770610D02*
D03*
D39*
X-283049Y-730789D02*
D03*
X-263050Y-721289D02*
D03*
Y-740290D02*
D03*
X-283049Y-772700D02*
D03*
X-263050Y-763199D02*
D03*
Y-782200D02*
D03*
D40*
X-279400Y-808879D02*
D03*
Y-822880D02*
D03*
X-257810Y-808879D02*
D03*
Y-822880D02*
D03*
X-237490Y-808260D02*
D03*
Y-822260D02*
D03*
D41*
X-229350Y-691602D02*
D03*
X-291350Y-691602D02*
D03*
X-229350Y-654598D02*
D03*
X-291350Y-654598D02*
D03*
D42*
X-134620Y-503200D02*
D03*
Y-470699D02*
D03*
D43*
X-131826Y-418768D02*
D03*
X-97790D02*
D03*
X-114808D02*
D03*
X-80772D02*
D03*
X-63754D02*
D03*
D44*
X-97790Y-320579D02*
D03*
D45*
X-184658Y-417987D02*
D03*
Y-373985D02*
D03*
D46*
X-203985Y-719360D02*
D03*
Y-732059D02*
D03*
Y-744760D02*
D03*
Y-757459D02*
D03*
Y-770160D02*
D03*
Y-782859D02*
D03*
Y-795559D02*
D03*
Y-808260D02*
D03*
X-146535Y-719360D02*
D03*
Y-732059D02*
D03*
Y-744760D02*
D03*
Y-757459D02*
D03*
Y-770160D02*
D03*
Y-782859D02*
D03*
Y-795559D02*
D03*
Y-808260D02*
D03*
D47*
X-181120Y-310420D02*
D03*
D48*
X-240520Y-333419D02*
D03*
Y-310420D02*
D03*
Y-287420D02*
D03*
D49*
X-847570Y-30000D02*
D03*
X-847570Y-835410D02*
D03*
X-30000Y-30000D02*
D03*
Y-835409D02*
D03*
D50*
X-827250Y-30000D02*
D03*
X-833202Y-15632D02*
D03*
X-847570Y-9680D02*
D03*
X-861938Y-15632D02*
D03*
X-867890Y-30000D02*
D03*
X-861938Y-44369D02*
D03*
X-847570Y-50320D02*
D03*
X-833202Y-44369D02*
D03*
X-827250Y-835410D02*
D03*
X-833202Y-821041D02*
D03*
X-847570Y-815090D02*
D03*
X-861938Y-821041D02*
D03*
X-867890Y-835410D02*
D03*
X-861938Y-849778D02*
D03*
X-847570Y-855730D02*
D03*
X-833202Y-849778D02*
D03*
X-9680Y-30000D02*
D03*
X-15632Y-15632D02*
D03*
X-30000Y-9680D02*
D03*
X-44368Y-15632D02*
D03*
X-50320Y-30000D02*
D03*
X-44368Y-44368D02*
D03*
X-30000Y-50320D02*
D03*
X-15632Y-44368D02*
D03*
Y-849778D02*
D03*
X-30000Y-855730D02*
D03*
X-44368Y-849778D02*
D03*
X-50320Y-835409D02*
D03*
X-44368Y-821041D02*
D03*
X-30000Y-815090D02*
D03*
X-15632Y-821041D02*
D03*
X-9680Y-835409D02*
D03*
D51*
X-316230Y-159220D02*
D03*
Y-109220D02*
D03*
X-816610Y-499180D02*
D03*
Y-549179D02*
D03*
X-266700Y-596639D02*
D03*
Y-546640D02*
D03*
X-361950Y-829310D02*
D03*
Y-778510D02*
D03*
X-183350Y-596170D02*
D03*
X-133350D02*
D03*
X-295910Y-386619D02*
D03*
X-346710D02*
D03*
X-737870Y-287020D02*
D03*
X-687870D02*
D03*
X-537210Y-350520D02*
D03*
X-487210D02*
D03*
D52*
X-848360Y-357124D02*
D03*
Y-331724D02*
D03*
Y-382524D02*
D03*
Y-182880D02*
D03*
Y-132080D02*
D03*
Y-157480D02*
D03*
D53*
Y-306324D02*
D03*
Y-106680D02*
D03*
D54*
X-246380Y-367570D02*
D03*
Y-418369D02*
D03*
X-240030Y-498380D02*
D03*
X-290830D02*
D03*
X-68580Y-673640D02*
D03*
X-17780D02*
D03*
D55*
X-18160Y-709860D02*
D03*
Y-796360D02*
D03*
D56*
X-60160Y-709860D02*
D03*
X-60160Y-796360D02*
D03*
D57*
X-54959Y-724209D02*
D03*
Y-782010D02*
D03*
D58*
X-337820Y-733900D02*
D03*
Y-713900D02*
D03*
D59*
X-44450Y-572674D02*
D03*
Y-623475D02*
D03*
D60*
X-448310Y-144780D02*
D03*
Y-119380D02*
D03*
Y-93980D02*
D03*
X-575310Y-271780D02*
D03*
X-448310Y-220980D02*
D03*
Y-195580D02*
D03*
Y-170180D02*
D03*
Y-246380D02*
D03*
X-575310Y-93980D02*
D03*
Y-119380D02*
D03*
Y-144780D02*
D03*
Y-170180D02*
D03*
Y-195580D02*
D03*
Y-220980D02*
D03*
Y-246380D02*
D03*
X-603250Y-420370D02*
D03*
Y-394970D02*
D03*
Y-369570D02*
D03*
X-730250Y-547370D02*
D03*
X-603250Y-496570D02*
D03*
Y-471170D02*
D03*
Y-445770D02*
D03*
Y-521970D02*
D03*
X-730250Y-369570D02*
D03*
Y-394970D02*
D03*
Y-420370D02*
D03*
Y-445770D02*
D03*
Y-471170D02*
D03*
Y-496570D02*
D03*
Y-521970D02*
D03*
X-648970Y-74930D02*
D03*
Y-49530D02*
D03*
Y-24130D02*
D03*
X-775970Y-201930D02*
D03*
X-648970Y-151130D02*
D03*
Y-125730D02*
D03*
Y-100330D02*
D03*
Y-176530D02*
D03*
X-775970Y-24130D02*
D03*
Y-49530D02*
D03*
Y-74930D02*
D03*
Y-100330D02*
D03*
Y-125730D02*
D03*
Y-151130D02*
D03*
Y-176530D02*
D03*
X-114300Y-236220D02*
D03*
X-88900D02*
D03*
X-63500D02*
D03*
X-241300Y-109220D02*
D03*
X-190500Y-236220D02*
D03*
X-165100D02*
D03*
X-139700D02*
D03*
X-215900D02*
D03*
X-63500Y-109220D02*
D03*
X-88900D02*
D03*
X-114300D02*
D03*
X-139700D02*
D03*
X-165100D02*
D03*
X-190500D02*
D03*
X-215900D02*
D03*
D61*
X-448310Y-271780D02*
D03*
X-603250Y-547370D02*
D03*
X-648970Y-201930D02*
D03*
D62*
X-241300Y-236220D02*
D03*
D63*
X-699770Y-828579D02*
D03*
X-750570D02*
D03*
X-725170D02*
D03*
X-190500Y-31180D02*
D03*
X-139700D02*
D03*
X-165100D02*
D03*
X-775970Y-678180D02*
D03*
X-725170D02*
D03*
X-750570D02*
D03*
X-801370Y-746760D02*
D03*
X-775970D02*
D03*
X-725170D02*
D03*
X-750570D02*
D03*
X-476250Y-43180D02*
D03*
X-527050D02*
D03*
X-501650D02*
D03*
D64*
X-775970Y-828579D02*
D03*
X-114300Y-31180D02*
D03*
X-699770Y-678180D02*
D03*
Y-746760D02*
D03*
X-552450Y-43180D02*
D03*
M02*
