G04*
G04 #@! TF.GenerationSoftware,Altium Limited,Altium Designer,24.1.2 (44)*
G04*
G04 Layer_Color=8421504*
%FSLAX44Y44*%
%MOMM*%
G71*
G04*
G04 #@! TF.SameCoordinates,B6A7EAFD-4425-4944-9F2F-193BF1EFC545*
G04*
G04*
G04 #@! TF.FilePolarity,Positive*
G04*
G01*
G75*
%ADD16R,5.0000X5.0000*%
%ADD17R,2.1000X0.9500*%
%ADD18R,0.9500X2.1000*%
%ADD19R,0.8000X0.8000*%
%ADD20R,2.0000X2.0000*%
%ADD21R,1.2500X0.7000*%
%ADD22R,0.9000X0.8000*%
%ADD23R,1.8000X1.1000*%
%ADD24R,4.2000X1.7500*%
%ADD25R,1.1500X3.2000*%
%ADD26R,2.0000X2.0000*%
%ADD27O,1.7450X0.5600*%
%ADD28R,2.3400X3.6000*%
%ADD29R,2.5000X1.1000*%
G36*
X-672160Y-484898D02*
Y-487319D01*
X-675860D01*
Y-490619D01*
X-672160D01*
Y-492898D01*
X-672660Y-493399D01*
X-680660D01*
X-681160Y-492898D01*
Y-484898D01*
X-680660Y-484399D01*
X-672660D01*
X-672160Y-484898D01*
D02*
G37*
G36*
X-656260Y-484899D02*
Y-492899D01*
X-656760Y-493399D01*
X-664760D01*
X-665260Y-492899D01*
Y-490479D01*
X-661560D01*
Y-487179D01*
X-665260D01*
Y-484899D01*
X-664760Y-484399D01*
X-656760D01*
X-656260Y-484899D01*
D02*
G37*
G36*
X-672126Y-501148D02*
Y-503568D01*
X-675826D01*
Y-506868D01*
X-672126D01*
Y-509148D01*
X-672626Y-509648D01*
X-680626D01*
X-681126Y-509148D01*
Y-501148D01*
X-680626Y-500648D01*
X-672626D01*
X-672126Y-501148D01*
D02*
G37*
G36*
X-656226Y-501148D02*
Y-509148D01*
X-656726Y-509648D01*
X-664726D01*
X-665226Y-509148D01*
Y-506728D01*
X-661526D01*
Y-503428D01*
X-665226D01*
Y-501148D01*
X-664726Y-500648D01*
X-656726D01*
X-656226Y-501148D01*
D02*
G37*
G36*
X-672160Y-517664D02*
Y-520085D01*
X-675860D01*
Y-523385D01*
X-672160D01*
Y-525664D01*
X-672660Y-526165D01*
X-680660D01*
X-681160Y-525664D01*
Y-517664D01*
X-680660Y-517165D01*
X-672660D01*
X-672160Y-517664D01*
D02*
G37*
G36*
X-656260Y-517665D02*
Y-525665D01*
X-656760Y-526165D01*
X-664760D01*
X-665260Y-525665D01*
Y-523245D01*
X-661560D01*
Y-519945D01*
X-665260D01*
Y-517665D01*
X-664760Y-517165D01*
X-656760D01*
X-656260Y-517665D01*
D02*
G37*
G36*
X-672160Y-435622D02*
Y-438043D01*
X-675860D01*
Y-441343D01*
X-672160D01*
Y-443622D01*
X-672660Y-444123D01*
X-680660D01*
X-681160Y-443622D01*
Y-435622D01*
X-680660Y-435123D01*
X-672660D01*
X-672160Y-435622D01*
D02*
G37*
G36*
X-656260Y-435623D02*
Y-443623D01*
X-656760Y-444123D01*
X-664760D01*
X-665260Y-443623D01*
Y-441203D01*
X-661560D01*
Y-437903D01*
X-665260D01*
Y-435623D01*
X-664760Y-435123D01*
X-656760D01*
X-656260Y-435623D01*
D02*
G37*
G36*
X-672160Y-452132D02*
Y-454553D01*
X-675860D01*
Y-457853D01*
X-672160D01*
Y-460132D01*
X-672660Y-460633D01*
X-680660D01*
X-681160Y-460132D01*
Y-452132D01*
X-680660Y-451633D01*
X-672660D01*
X-672160Y-452132D01*
D02*
G37*
G36*
X-656260Y-452133D02*
Y-460133D01*
X-656760Y-460633D01*
X-664760D01*
X-665260Y-460133D01*
Y-457713D01*
X-661560D01*
Y-454413D01*
X-665260D01*
Y-452133D01*
X-664760Y-451633D01*
X-656760D01*
X-656260Y-452133D01*
D02*
G37*
G36*
X-672246Y-468642D02*
Y-471063D01*
X-675947D01*
Y-474363D01*
X-672246D01*
Y-476642D01*
X-672747Y-477143D01*
X-680747D01*
X-681246Y-476642D01*
Y-468642D01*
X-680747Y-468143D01*
X-672747D01*
X-672246Y-468642D01*
D02*
G37*
G36*
X-656346Y-468643D02*
Y-476643D01*
X-656846Y-477143D01*
X-664846D01*
X-665346Y-476643D01*
Y-474223D01*
X-661646D01*
Y-470923D01*
X-665346D01*
Y-468643D01*
X-664846Y-468143D01*
X-656846D01*
X-656346Y-468643D01*
D02*
G37*
G36*
X-545740Y-536289D02*
Y-538710D01*
X-549440D01*
Y-542010D01*
X-545740D01*
Y-544289D01*
X-546240Y-544789D01*
X-554240D01*
X-554740Y-544289D01*
Y-536289D01*
X-554240Y-535789D01*
X-546240D01*
X-545740Y-536289D01*
D02*
G37*
G36*
X-529840Y-536290D02*
Y-544290D01*
X-530340Y-544790D01*
X-538340D01*
X-538840Y-544290D01*
Y-541869D01*
X-535140D01*
Y-538569D01*
X-538840D01*
Y-536290D01*
X-538340Y-535790D01*
X-530340D01*
X-529840Y-536290D01*
D02*
G37*
G36*
X-545740Y-554069D02*
Y-556490D01*
X-549440D01*
Y-559790D01*
X-545740D01*
Y-562069D01*
X-546240Y-562569D01*
X-554240D01*
X-554740Y-562069D01*
Y-554069D01*
X-554240Y-553569D01*
X-546240D01*
X-545740Y-554069D01*
D02*
G37*
G36*
X-529840Y-554070D02*
Y-562070D01*
X-530340Y-562570D01*
X-538340D01*
X-538840Y-562070D01*
Y-559649D01*
X-535140D01*
Y-556349D01*
X-538840D01*
Y-554070D01*
X-538340Y-553570D01*
X-530340D01*
X-529840Y-554070D01*
D02*
G37*
G36*
X-545654Y-572021D02*
Y-574441D01*
X-549354D01*
Y-577741D01*
X-545654D01*
Y-580021D01*
X-546154Y-580521D01*
X-554154D01*
X-554654Y-580021D01*
Y-572021D01*
X-554154Y-571521D01*
X-546154D01*
X-545654Y-572021D01*
D02*
G37*
G36*
X-529754Y-572021D02*
Y-580021D01*
X-530253Y-580521D01*
X-538253D01*
X-538754Y-580021D01*
Y-577601D01*
X-535053D01*
Y-574301D01*
X-538754D01*
Y-572021D01*
X-538253Y-571521D01*
X-530253D01*
X-529754Y-572021D01*
D02*
G37*
G36*
X-387930Y-738316D02*
Y-730316D01*
X-388430Y-729816D01*
X-390710D01*
Y-733516D01*
X-394010D01*
Y-729816D01*
X-396430D01*
X-396930Y-730316D01*
Y-738316D01*
X-396430Y-738816D01*
X-388430D01*
X-387930Y-738316D01*
D02*
G37*
G36*
X-396930Y-714416D02*
Y-722416D01*
X-396430Y-722916D01*
X-394150D01*
Y-719216D01*
X-390850D01*
Y-722916D01*
X-388430D01*
X-387930Y-722416D01*
Y-714416D01*
X-388430Y-713916D01*
X-396430D01*
X-396930Y-714416D01*
D02*
G37*
G36*
X-313254Y-671080D02*
Y-663080D01*
X-313754Y-662580D01*
X-316034D01*
Y-666280D01*
X-319334D01*
Y-662580D01*
X-321754D01*
X-322254Y-663080D01*
Y-671080D01*
X-321754Y-671580D01*
X-313754D01*
X-313254Y-671080D01*
D02*
G37*
G36*
X-446858Y-581164D02*
Y-573164D01*
X-447358Y-572664D01*
X-449638D01*
Y-576364D01*
X-452938D01*
Y-572664D01*
X-455358D01*
X-455858Y-573164D01*
Y-581164D01*
X-455358Y-581664D01*
X-447358D01*
X-446858Y-581164D01*
D02*
G37*
G36*
X-455858Y-557264D02*
Y-565264D01*
X-455358Y-565764D01*
X-453078D01*
Y-562064D01*
X-449778D01*
Y-565764D01*
X-447358D01*
X-446858Y-565264D01*
Y-557264D01*
X-447358Y-556764D01*
X-455358D01*
X-455858Y-557264D01*
D02*
G37*
G36*
X-322254Y-647180D02*
Y-655180D01*
X-321754Y-655680D01*
X-319474D01*
Y-651980D01*
X-316174D01*
Y-655680D01*
X-313754D01*
X-313254Y-655180D01*
Y-647180D01*
X-313754Y-646680D01*
X-321754D01*
X-322254Y-647180D01*
D02*
G37*
G36*
X-715124Y-90940D02*
Y-93360D01*
X-718824D01*
Y-96660D01*
X-715124D01*
Y-98940D01*
X-715624Y-99440D01*
X-723624D01*
X-724124Y-98940D01*
Y-90940D01*
X-723624Y-90440D01*
X-715624D01*
X-715124Y-90940D01*
D02*
G37*
G36*
X-699224Y-90940D02*
Y-98940D01*
X-699724Y-99440D01*
X-707724D01*
X-708224Y-98940D01*
Y-96520D01*
X-704524D01*
Y-93220D01*
X-708224D01*
Y-90940D01*
X-707724Y-90440D01*
X-699724D01*
X-699224Y-90940D01*
D02*
G37*
G36*
X-715124Y-107146D02*
Y-109566D01*
X-718824D01*
Y-112866D01*
X-715124D01*
Y-115146D01*
X-715624Y-115646D01*
X-723624D01*
X-724124Y-115146D01*
Y-107146D01*
X-723624Y-106646D01*
X-715624D01*
X-715124Y-107146D01*
D02*
G37*
G36*
X-699224Y-107147D02*
Y-115147D01*
X-699724Y-115646D01*
X-707724D01*
X-708224Y-115147D01*
Y-112726D01*
X-704524D01*
Y-109426D01*
X-708224D01*
Y-107147D01*
X-707724Y-106646D01*
X-699724D01*
X-699224Y-107147D01*
D02*
G37*
G36*
X-715124Y-123764D02*
Y-126184D01*
X-718824D01*
Y-129484D01*
X-715124D01*
Y-131764D01*
X-715624Y-132264D01*
X-723624D01*
X-724124Y-131764D01*
Y-123764D01*
X-723624Y-123264D01*
X-715624D01*
X-715124Y-123764D01*
D02*
G37*
G36*
X-699224Y-123764D02*
Y-131764D01*
X-699724Y-132264D01*
X-707724D01*
X-708224Y-131764D01*
Y-129344D01*
X-704524D01*
Y-126044D01*
X-708224D01*
Y-123764D01*
X-707724Y-123264D01*
X-699724D01*
X-699224Y-123764D01*
D02*
G37*
G36*
X-715124Y-140216D02*
Y-142636D01*
X-718824D01*
Y-145936D01*
X-715124D01*
Y-148216D01*
X-715624Y-148716D01*
X-723624D01*
X-724124Y-148216D01*
Y-140216D01*
X-723624Y-139716D01*
X-715624D01*
X-715124Y-140216D01*
D02*
G37*
G36*
X-699224Y-140216D02*
Y-148216D01*
X-699724Y-148716D01*
X-707724D01*
X-708224Y-148216D01*
Y-145796D01*
X-704524D01*
Y-142496D01*
X-708224D01*
Y-140216D01*
X-707724Y-139716D01*
X-699724D01*
X-699224Y-140216D01*
D02*
G37*
G36*
X-715124Y-156410D02*
Y-158830D01*
X-718824D01*
Y-162130D01*
X-715124D01*
Y-164410D01*
X-715624Y-164910D01*
X-723624D01*
X-724124Y-164410D01*
Y-156410D01*
X-723624Y-155910D01*
X-715624D01*
X-715124Y-156410D01*
D02*
G37*
G36*
X-699224Y-156410D02*
Y-164410D01*
X-699724Y-164910D01*
X-707724D01*
X-708224Y-164410D01*
Y-161990D01*
X-704524D01*
Y-158690D01*
X-708224D01*
Y-156410D01*
X-707724Y-155910D01*
X-699724D01*
X-699224Y-156410D01*
D02*
G37*
G36*
X-514619Y-159675D02*
Y-162095D01*
X-518320D01*
Y-165395D01*
X-514619D01*
Y-167675D01*
X-515120Y-168175D01*
X-523120D01*
X-523619Y-167675D01*
Y-159675D01*
X-523120Y-159175D01*
X-515120D01*
X-514619Y-159675D01*
D02*
G37*
G36*
X-498719Y-159675D02*
Y-167675D01*
X-499219Y-168175D01*
X-507219D01*
X-507719Y-167675D01*
Y-165255D01*
X-504019D01*
Y-161955D01*
X-507719D01*
Y-159675D01*
X-507219Y-159175D01*
X-499219D01*
X-498719Y-159675D01*
D02*
G37*
G36*
X-715124Y-172728D02*
Y-175148D01*
X-718824D01*
Y-178448D01*
X-715124D01*
Y-180728D01*
X-715624Y-181228D01*
X-723624D01*
X-724124Y-180728D01*
Y-172728D01*
X-723624Y-172228D01*
X-715624D01*
X-715124Y-172728D01*
D02*
G37*
G36*
X-699224Y-172728D02*
Y-180728D01*
X-699724Y-181228D01*
X-707724D01*
X-708224Y-180728D01*
Y-178308D01*
X-704524D01*
Y-175008D01*
X-708224D01*
Y-172728D01*
X-707724Y-172228D01*
X-699724D01*
X-699224Y-172728D01*
D02*
G37*
G36*
X-514619Y-175931D02*
Y-178351D01*
X-518320D01*
Y-181651D01*
X-514619D01*
Y-183930D01*
X-515120Y-184431D01*
X-523120D01*
X-523619Y-183930D01*
Y-175931D01*
X-523120Y-175431D01*
X-515120D01*
X-514619Y-175931D01*
D02*
G37*
G36*
X-498719Y-175931D02*
Y-183931D01*
X-499219Y-184431D01*
X-507219D01*
X-507719Y-183931D01*
Y-181511D01*
X-504019D01*
Y-178211D01*
X-507719D01*
Y-175931D01*
X-507219Y-175431D01*
X-499219D01*
X-498719Y-175931D01*
D02*
G37*
G36*
X-514619Y-192441D02*
Y-194861D01*
X-518320D01*
Y-198161D01*
X-514619D01*
Y-200441D01*
X-515120Y-200941D01*
X-523120D01*
X-523619Y-200441D01*
Y-192441D01*
X-523120Y-191941D01*
X-515120D01*
X-514619Y-192441D01*
D02*
G37*
G36*
X-498719Y-192441D02*
Y-200441D01*
X-499219Y-200941D01*
X-507219D01*
X-507719Y-200441D01*
Y-198021D01*
X-504019D01*
Y-194721D01*
X-507719D01*
Y-192441D01*
X-507219Y-191941D01*
X-499219D01*
X-498719Y-192441D01*
D02*
G37*
G36*
X-514874Y-208951D02*
Y-211371D01*
X-518573D01*
Y-214671D01*
X-514874D01*
Y-216950D01*
X-515374Y-217451D01*
X-523374D01*
X-523873Y-216950D01*
Y-208951D01*
X-523374Y-208451D01*
X-515374D01*
X-514874Y-208951D01*
D02*
G37*
G36*
X-498973Y-208951D02*
Y-216951D01*
X-499473Y-217451D01*
X-507473D01*
X-507973Y-216951D01*
Y-214531D01*
X-504273D01*
Y-211231D01*
X-507973D01*
Y-208951D01*
X-507473Y-208451D01*
X-499473D01*
X-498973Y-208951D01*
D02*
G37*
G36*
X-514787Y-225706D02*
Y-228127D01*
X-518487D01*
Y-231427D01*
X-514787D01*
Y-233706D01*
X-515287Y-234207D01*
X-523287D01*
X-523787Y-233706D01*
Y-225706D01*
X-523287Y-225207D01*
X-515287D01*
X-514787Y-225706D01*
D02*
G37*
G36*
X-498887Y-225707D02*
Y-233707D01*
X-499387Y-234207D01*
X-507387D01*
X-507887Y-233707D01*
Y-231287D01*
X-504187D01*
Y-227987D01*
X-507887D01*
Y-225707D01*
X-507387Y-225207D01*
X-499387D01*
X-498887Y-225707D01*
D02*
G37*
G36*
X-514874Y-242225D02*
Y-244645D01*
X-518573D01*
Y-247945D01*
X-514874D01*
Y-250224D01*
X-515374Y-250725D01*
X-523374D01*
X-523873Y-250224D01*
Y-242225D01*
X-523374Y-241725D01*
X-515374D01*
X-514874Y-242225D01*
D02*
G37*
G36*
X-498973Y-242225D02*
Y-250225D01*
X-499473Y-250725D01*
X-507473D01*
X-507973Y-250225D01*
Y-247805D01*
X-504273D01*
Y-244505D01*
X-507973D01*
Y-242225D01*
X-507473Y-241725D01*
X-499473D01*
X-498973Y-242225D01*
D02*
G37*
G36*
X-306894Y-320389D02*
Y-322810D01*
X-310594D01*
Y-326110D01*
X-306894D01*
Y-328389D01*
X-307394Y-328889D01*
X-315394D01*
X-315894Y-328389D01*
Y-320389D01*
X-315394Y-319889D01*
X-307394D01*
X-306894Y-320389D01*
D02*
G37*
G36*
X-194429Y-165088D02*
Y-173088D01*
X-194929Y-173588D01*
X-197350D01*
Y-169888D01*
X-200650D01*
Y-173588D01*
X-202929D01*
X-203430Y-173088D01*
Y-165088D01*
X-202929Y-164588D01*
X-194929D01*
X-194429Y-165088D01*
D02*
G37*
G36*
X-211379D02*
Y-173088D01*
X-211879Y-173588D01*
X-214300D01*
Y-169888D01*
X-217600D01*
Y-173588D01*
X-219879D01*
X-220379Y-173088D01*
Y-165088D01*
X-219879Y-164588D01*
X-211879D01*
X-211379Y-165088D01*
D02*
G37*
G36*
X-129170Y-165194D02*
Y-173194D01*
X-129670Y-173694D01*
X-132090D01*
Y-169994D01*
X-135390D01*
Y-173694D01*
X-137670D01*
X-138170Y-173194D01*
Y-165194D01*
X-137670Y-164694D01*
X-129670D01*
X-129170Y-165194D01*
D02*
G37*
G36*
X-145350D02*
Y-173194D01*
X-145850Y-173694D01*
X-148270D01*
Y-169994D01*
X-151570D01*
Y-173694D01*
X-153849D01*
X-154350Y-173194D01*
Y-165194D01*
X-153849Y-164694D01*
X-145850D01*
X-145350Y-165194D01*
D02*
G37*
G36*
X-161606D02*
Y-173194D01*
X-162106Y-173694D01*
X-164526D01*
Y-169994D01*
X-167826D01*
Y-173694D01*
X-170105D01*
X-170606Y-173194D01*
Y-165194D01*
X-170105Y-164694D01*
X-162106D01*
X-161606Y-165194D01*
D02*
G37*
G36*
X-178116D02*
Y-173194D01*
X-178615Y-173694D01*
X-181036D01*
Y-169994D01*
X-184336D01*
Y-173694D01*
X-186616D01*
X-187116Y-173194D01*
Y-165194D01*
X-186616Y-164694D01*
X-178615D01*
X-178116Y-165194D01*
D02*
G37*
G36*
X-194430Y-180988D02*
Y-188988D01*
X-194930Y-189488D01*
X-202930D01*
X-203430Y-188988D01*
Y-180988D01*
X-202930Y-180488D01*
X-200509D01*
Y-184188D01*
X-197209D01*
Y-180488D01*
X-194930D01*
X-194430Y-180988D01*
D02*
G37*
G36*
X-211380D02*
Y-188988D01*
X-211880Y-189488D01*
X-219880D01*
X-220380Y-188988D01*
Y-180988D01*
X-219880Y-180488D01*
X-217459D01*
Y-184188D01*
X-214160D01*
Y-180488D01*
X-211880D01*
X-211380Y-180988D01*
D02*
G37*
G36*
X-129170Y-181094D02*
Y-189094D01*
X-129670Y-189594D01*
X-137670D01*
X-138170Y-189094D01*
Y-181094D01*
X-137670Y-180594D01*
X-135250D01*
Y-184294D01*
X-131950D01*
Y-180594D01*
X-129670D01*
X-129170Y-181094D01*
D02*
G37*
G36*
X-145350D02*
Y-189094D01*
X-145850Y-189594D01*
X-153850D01*
X-154350Y-189094D01*
Y-181094D01*
X-153850Y-180594D01*
X-151430D01*
Y-184294D01*
X-148130D01*
Y-180594D01*
X-145850D01*
X-145350Y-181094D01*
D02*
G37*
G36*
X-161606D02*
Y-189094D01*
X-162106Y-189594D01*
X-170106D01*
X-170606Y-189094D01*
Y-181094D01*
X-170106Y-180594D01*
X-167686D01*
Y-184294D01*
X-164386D01*
Y-180594D01*
X-162106D01*
X-161606Y-181094D01*
D02*
G37*
G36*
X-178116D02*
Y-189094D01*
X-178616Y-189594D01*
X-186616D01*
X-187116Y-189094D01*
Y-181094D01*
X-186616Y-180594D01*
X-184196D01*
Y-184294D01*
X-180896D01*
Y-180594D01*
X-178616D01*
X-178116Y-181094D01*
D02*
G37*
G36*
X-290994Y-320390D02*
Y-328390D01*
X-291493Y-328890D01*
X-299493D01*
X-299994Y-328390D01*
Y-325969D01*
X-296294D01*
Y-322669D01*
X-299994D01*
Y-320390D01*
X-299493Y-319890D01*
X-291493D01*
X-290994Y-320390D01*
D02*
G37*
G36*
X-251014Y-448659D02*
Y-451080D01*
X-254714D01*
Y-454380D01*
X-251014D01*
Y-456659D01*
X-251514Y-457159D01*
X-259514D01*
X-260014Y-456659D01*
Y-448659D01*
X-259514Y-448159D01*
X-251514D01*
X-251014Y-448659D01*
D02*
G37*
G36*
X-235114Y-448660D02*
Y-456660D01*
X-235613Y-457160D01*
X-243613D01*
X-244114Y-456660D01*
Y-454239D01*
X-240413D01*
Y-450939D01*
X-244114D01*
Y-448660D01*
X-243613Y-448160D01*
X-235613D01*
X-235114Y-448660D01*
D02*
G37*
G36*
X-251014Y-466439D02*
Y-468860D01*
X-254714D01*
Y-472160D01*
X-251014D01*
Y-474439D01*
X-251514Y-474939D01*
X-259514D01*
X-260014Y-474439D01*
Y-466439D01*
X-259514Y-465939D01*
X-251514D01*
X-251014Y-466439D01*
D02*
G37*
G36*
X-235114Y-466440D02*
Y-474440D01*
X-235613Y-474940D01*
X-243613D01*
X-244114Y-474440D01*
Y-472019D01*
X-240413D01*
Y-468719D01*
X-244114D01*
Y-466440D01*
X-243613Y-465940D01*
X-235613D01*
X-235114Y-466440D01*
D02*
G37*
G36*
X-76688Y-472479D02*
Y-474900D01*
X-80388D01*
Y-478200D01*
X-76688D01*
Y-480479D01*
X-77189Y-480979D01*
X-85189D01*
X-85688Y-480479D01*
Y-472479D01*
X-85189Y-471979D01*
X-77189D01*
X-76688Y-472479D01*
D02*
G37*
G36*
X-60788Y-472480D02*
Y-480480D01*
X-61288Y-480980D01*
X-69288D01*
X-69788Y-480480D01*
Y-478060D01*
X-66088D01*
Y-474760D01*
X-69788D01*
Y-472480D01*
X-69288Y-471980D01*
X-61288D01*
X-60788Y-472480D01*
D02*
G37*
G36*
X-76688Y-494069D02*
Y-496490D01*
X-80388D01*
Y-499790D01*
X-76688D01*
Y-502069D01*
X-77189Y-502570D01*
X-85189D01*
X-85688Y-502069D01*
Y-494069D01*
X-85189Y-493569D01*
X-77189D01*
X-76688Y-494069D01*
D02*
G37*
G36*
X-60788Y-494070D02*
Y-502070D01*
X-61288Y-502570D01*
X-69288D01*
X-69788Y-502070D01*
Y-499650D01*
X-66088D01*
Y-496350D01*
X-69788D01*
Y-494070D01*
X-69288Y-493570D01*
X-61288D01*
X-60788Y-494070D01*
D02*
G37*
G36*
X-16360Y-703868D02*
X-16062Y-703891D01*
X-15765Y-703928D01*
X-15470Y-703980D01*
X-15179Y-704046D01*
X-14891Y-704127D01*
X-14607Y-704223D01*
X-14329Y-704332D01*
X-14056Y-704455D01*
X-13790Y-704592D01*
X-13531Y-704741D01*
X-13279Y-704904D01*
X-13037Y-705078D01*
X-12803Y-705265D01*
X-12578Y-705463D01*
X-12364Y-705671D01*
X-12161Y-705891D01*
X-11968Y-706120D01*
X-11788Y-706358D01*
X-11619Y-706606D01*
X-11463Y-706861D01*
X-11320Y-707124D01*
X-11190Y-707393D01*
X-11074Y-707669D01*
X-10972Y-707950D01*
X-10884Y-708236D01*
X-10810Y-708526D01*
X-10750Y-708819D01*
X-10706Y-709115D01*
X-10676Y-709413D01*
X-10661Y-709711D01*
Y-710011D01*
X-10676Y-710309D01*
X-10706Y-710607D01*
X-10750Y-710903D01*
X-10810Y-711196D01*
X-10884Y-711486D01*
X-10972Y-711772D01*
X-11074Y-712053D01*
X-11190Y-712328D01*
X-11320Y-712598D01*
X-11463Y-712861D01*
X-11619Y-713116D01*
X-11788Y-713363D01*
X-11968Y-713602D01*
X-12161Y-713831D01*
X-12364Y-714050D01*
X-12578Y-714259D01*
X-12803Y-714457D01*
X-13037Y-714644D01*
X-13279Y-714818D01*
X-13531Y-714980D01*
X-13790Y-715130D01*
X-14056Y-715267D01*
X-14329Y-715390D01*
X-14607Y-715499D01*
X-14891Y-715594D01*
X-15179Y-715676D01*
X-15470Y-715742D01*
X-15765Y-715794D01*
X-16062Y-715831D01*
X-16360Y-715854D01*
X-16659Y-715861D01*
X-19659D01*
X-19958Y-715854D01*
X-20257Y-715831D01*
X-20554Y-715794D01*
X-20848Y-715742D01*
X-21140Y-715676D01*
X-21428Y-715594D01*
X-21711Y-715499D01*
X-21990Y-715390D01*
X-22263Y-715267D01*
X-22529Y-715130D01*
X-22788Y-714980D01*
X-23039Y-714818D01*
X-23282Y-714644D01*
X-23516Y-714457D01*
X-23740Y-714259D01*
X-23955Y-714050D01*
X-24158Y-713831D01*
X-24350Y-713602D01*
X-24531Y-713363D01*
X-24699Y-713116D01*
X-24855Y-712861D01*
X-24999Y-712598D01*
X-25129Y-712328D01*
X-25245Y-712053D01*
X-25347Y-711772D01*
X-25435Y-711486D01*
X-25509Y-711196D01*
X-25568Y-710903D01*
X-25613Y-710607D01*
X-25643Y-710309D01*
X-25658Y-710011D01*
Y-709711D01*
X-25643Y-709413D01*
X-25613Y-709115D01*
X-25568Y-708819D01*
X-25509Y-708526D01*
X-25435Y-708236D01*
X-25347Y-707950D01*
X-25245Y-707669D01*
X-25129Y-707393D01*
X-24999Y-707124D01*
X-24855Y-706861D01*
X-24699Y-706606D01*
X-24531Y-706358D01*
X-24350Y-706120D01*
X-24158Y-705891D01*
X-23955Y-705671D01*
X-23740Y-705463D01*
X-23516Y-705265D01*
X-23282Y-705078D01*
X-23039Y-704904D01*
X-22788Y-704741D01*
X-22529Y-704592D01*
X-22263Y-704455D01*
X-21990Y-704332D01*
X-21711Y-704223D01*
X-21428Y-704127D01*
X-21140Y-704046D01*
X-20848Y-703980D01*
X-20554Y-703928D01*
X-20257Y-703891D01*
X-19958Y-703868D01*
X-19659Y-703861D01*
X-16659D01*
X-16360Y-703868D01*
D02*
G37*
G36*
X-55862D02*
X-55564Y-703891D01*
X-55267Y-703928D01*
X-54972Y-703980D01*
X-54680Y-704046D01*
X-54392Y-704127D01*
X-54109Y-704223D01*
X-53830Y-704332D01*
X-53558Y-704455D01*
X-53292Y-704592D01*
X-53032Y-704741D01*
X-52781Y-704904D01*
X-52538Y-705078D01*
X-52304Y-705265D01*
X-52080Y-705463D01*
X-51866Y-705671D01*
X-51662Y-705891D01*
X-51470Y-706120D01*
X-51289Y-706358D01*
X-51121Y-706606D01*
X-50965Y-706861D01*
X-50822Y-707124D01*
X-50692Y-707393D01*
X-50576Y-707669D01*
X-50473Y-707950D01*
X-50385Y-708236D01*
X-50311Y-708526D01*
X-50252Y-708819D01*
X-50207Y-709115D01*
X-50178Y-709413D01*
X-50163Y-709711D01*
Y-710011D01*
X-50178Y-710309D01*
X-50207Y-710607D01*
X-50252Y-710903D01*
X-50311Y-711196D01*
X-50385Y-711486D01*
X-50473Y-711772D01*
X-50576Y-712053D01*
X-50692Y-712328D01*
X-50822Y-712598D01*
X-50965Y-712861D01*
X-51121Y-713116D01*
X-51289Y-713363D01*
X-51470Y-713602D01*
X-51662Y-713831D01*
X-51866Y-714050D01*
X-52080Y-714259D01*
X-52304Y-714457D01*
X-52538Y-714644D01*
X-52781Y-714818D01*
X-53032Y-714980D01*
X-53292Y-715130D01*
X-53558Y-715267D01*
X-53830Y-715390D01*
X-54109Y-715499D01*
X-54392Y-715594D01*
X-54680Y-715676D01*
X-54972Y-715742D01*
X-55267Y-715794D01*
X-55564Y-715831D01*
X-55862Y-715854D01*
X-56161Y-715861D01*
X-64161D01*
X-64460Y-715854D01*
X-64758Y-715831D01*
X-65055Y-715794D01*
X-65350Y-715742D01*
X-65641Y-715676D01*
X-65929Y-715594D01*
X-66213Y-715499D01*
X-66492Y-715390D01*
X-66764Y-715267D01*
X-67030Y-715130D01*
X-67289Y-714980D01*
X-67541Y-714818D01*
X-67784Y-714644D01*
X-68018Y-714457D01*
X-68242Y-714259D01*
X-68456Y-714050D01*
X-68660Y-713831D01*
X-68852Y-713602D01*
X-69033Y-713363D01*
X-69201Y-713116D01*
X-69357Y-712861D01*
X-69500Y-712598D01*
X-69630Y-712328D01*
X-69746Y-712053D01*
X-69848Y-711772D01*
X-69937Y-711486D01*
X-70010Y-711196D01*
X-70070Y-710903D01*
X-70114Y-710607D01*
X-70144Y-710309D01*
X-70159Y-710011D01*
Y-709711D01*
X-70144Y-709413D01*
X-70114Y-709115D01*
X-70070Y-708819D01*
X-70010Y-708526D01*
X-69937Y-708236D01*
X-69848Y-707950D01*
X-69746Y-707669D01*
X-69630Y-707393D01*
X-69500Y-707124D01*
X-69357Y-706861D01*
X-69201Y-706606D01*
X-69033Y-706358D01*
X-68852Y-706120D01*
X-68660Y-705891D01*
X-68456Y-705671D01*
X-68242Y-705463D01*
X-68018Y-705265D01*
X-67784Y-705078D01*
X-67541Y-704904D01*
X-67289Y-704741D01*
X-67030Y-704592D01*
X-66764Y-704455D01*
X-66492Y-704332D01*
X-66213Y-704223D01*
X-65929Y-704127D01*
X-65641Y-704046D01*
X-65350Y-703980D01*
X-65055Y-703928D01*
X-64758Y-703891D01*
X-64460Y-703868D01*
X-64161Y-703861D01*
X-56161D01*
X-55862Y-703868D01*
D02*
G37*
G36*
X-60160Y-724111D02*
X-71160D01*
Y-718111D01*
X-60160D01*
Y-724111D01*
D02*
G37*
G36*
X-235530Y-716944D02*
Y-724943D01*
X-236030Y-725444D01*
X-238450D01*
Y-721744D01*
X-241750D01*
Y-725444D01*
X-244030D01*
X-244530Y-724943D01*
Y-716944D01*
X-244030Y-716444D01*
X-236030D01*
X-235530Y-716944D01*
D02*
G37*
G36*
X-113580Y-718129D02*
Y-720549D01*
X-117280D01*
Y-723849D01*
X-113580D01*
Y-726129D01*
X-114080Y-726629D01*
X-122080D01*
X-122580Y-726129D01*
Y-718129D01*
X-122080Y-717629D01*
X-114080D01*
X-113580Y-718129D01*
D02*
G37*
G36*
X-97680Y-718129D02*
Y-726129D01*
X-98180Y-726629D01*
X-106180D01*
X-106680Y-726129D01*
Y-723709D01*
X-102980D01*
Y-720409D01*
X-106680D01*
Y-718129D01*
X-106180Y-717629D01*
X-98180D01*
X-97680Y-718129D01*
D02*
G37*
G36*
X-60160Y-732109D02*
X-71160D01*
Y-726109D01*
X-60160D01*
Y-732109D01*
D02*
G37*
G36*
X-235530Y-732844D02*
Y-740844D01*
X-236030Y-741344D01*
X-244030D01*
X-244530Y-740844D01*
Y-732844D01*
X-244030Y-732344D01*
X-241610D01*
Y-736044D01*
X-238310D01*
Y-732344D01*
X-236030D01*
X-235530Y-732844D01*
D02*
G37*
G36*
X-60160Y-737109D02*
X-71160D01*
Y-734109D01*
X-60160D01*
Y-737109D01*
D02*
G37*
G36*
Y-742110D02*
X-71160D01*
Y-739110D01*
X-60160D01*
Y-742110D01*
D02*
G37*
G36*
Y-747112D02*
X-71160D01*
Y-744111D01*
X-60160D01*
Y-747112D01*
D02*
G37*
G36*
X-113580Y-742989D02*
Y-745410D01*
X-117280D01*
Y-748710D01*
X-113580D01*
Y-750989D01*
X-114080Y-751489D01*
X-122080D01*
X-122580Y-750989D01*
Y-742989D01*
X-122080Y-742489D01*
X-114080D01*
X-113580Y-742989D01*
D02*
G37*
G36*
X-97680Y-742990D02*
Y-750990D01*
X-98180Y-751490D01*
X-106180D01*
X-106680Y-750990D01*
Y-748569D01*
X-102980D01*
Y-745270D01*
X-106680D01*
Y-742990D01*
X-106180Y-742490D01*
X-98180D01*
X-97680Y-742990D01*
D02*
G37*
G36*
X-60160Y-752110D02*
X-71160D01*
Y-749110D01*
X-60160D01*
Y-752110D01*
D02*
G37*
G36*
Y-757112D02*
X-71160D01*
Y-754111D01*
X-60160D01*
Y-757112D01*
D02*
G37*
G36*
Y-762110D02*
X-71160D01*
Y-759110D01*
X-60160D01*
Y-762110D01*
D02*
G37*
G36*
Y-767109D02*
X-71160D01*
Y-764109D01*
X-60160D01*
Y-767109D01*
D02*
G37*
G36*
X-235530Y-760749D02*
Y-768749D01*
X-236030Y-769249D01*
X-238450D01*
Y-765549D01*
X-241750D01*
Y-769249D01*
X-244030D01*
X-244530Y-768749D01*
Y-760749D01*
X-244030Y-760249D01*
X-236030D01*
X-235530Y-760749D01*
D02*
G37*
G36*
X-60160Y-772110D02*
X-71160D01*
Y-769110D01*
X-60160D01*
Y-772110D01*
D02*
G37*
G36*
X-113580Y-768929D02*
Y-771349D01*
X-117280D01*
Y-774649D01*
X-113580D01*
Y-776929D01*
X-114080Y-777429D01*
X-122080D01*
X-122580Y-776929D01*
Y-768929D01*
X-122080Y-768429D01*
X-114080D01*
X-113580Y-768929D01*
D02*
G37*
G36*
X-97680Y-768929D02*
Y-776929D01*
X-98180Y-777429D01*
X-106180D01*
X-106680Y-776929D01*
Y-774509D01*
X-102980D01*
Y-771209D01*
X-106680D01*
Y-768929D01*
X-106180Y-768429D01*
X-98180D01*
X-97680Y-768929D01*
D02*
G37*
G36*
X-235530Y-776650D02*
Y-784650D01*
X-236030Y-785150D01*
X-244030D01*
X-244530Y-784650D01*
Y-776650D01*
X-244030Y-776150D01*
X-241610D01*
Y-779850D01*
X-238310D01*
Y-776150D01*
X-236030D01*
X-235530Y-776650D01*
D02*
G37*
G36*
X-60160Y-780110D02*
X-71160D01*
Y-774110D01*
X-60160D01*
Y-780110D01*
D02*
G37*
G36*
Y-788111D02*
X-71160D01*
Y-782111D01*
X-60160D01*
Y-788111D01*
D02*
G37*
G36*
X-16360Y-790368D02*
X-16062Y-790390D01*
X-15765Y-790428D01*
X-15470Y-790480D01*
X-15179Y-790546D01*
X-14891Y-790627D01*
X-14607Y-790723D01*
X-14329Y-790832D01*
X-14056Y-790955D01*
X-13790Y-791091D01*
X-13531Y-791241D01*
X-13279Y-791403D01*
X-13037Y-791578D01*
X-12803Y-791764D01*
X-12578Y-791962D01*
X-12364Y-792171D01*
X-12161Y-792391D01*
X-11968Y-792620D01*
X-11788Y-792858D01*
X-11619Y-793105D01*
X-11463Y-793361D01*
X-11320Y-793623D01*
X-11190Y-793893D01*
X-11074Y-794169D01*
X-10972Y-794450D01*
X-10884Y-794735D01*
X-10810Y-795026D01*
X-10750Y-795319D01*
X-10706Y-795615D01*
X-10676Y-795912D01*
X-10661Y-796211D01*
Y-796510D01*
X-10676Y-796809D01*
X-10706Y-797107D01*
X-10750Y-797402D01*
X-10810Y-797696D01*
X-10884Y-797986D01*
X-10972Y-798271D01*
X-11074Y-798553D01*
X-11190Y-798828D01*
X-11320Y-799098D01*
X-11463Y-799361D01*
X-11619Y-799616D01*
X-11788Y-799863D01*
X-11968Y-800101D01*
X-12161Y-800331D01*
X-12364Y-800550D01*
X-12578Y-800759D01*
X-12803Y-800957D01*
X-13037Y-801143D01*
X-13279Y-801318D01*
X-13531Y-801480D01*
X-13790Y-801630D01*
X-14056Y-801767D01*
X-14329Y-801889D01*
X-14607Y-801999D01*
X-14891Y-802094D01*
X-15179Y-802175D01*
X-15470Y-802242D01*
X-15765Y-802293D01*
X-16062Y-802331D01*
X-16360Y-802353D01*
X-16659Y-802361D01*
X-19659D01*
X-19958Y-802353D01*
X-20257Y-802331D01*
X-20554Y-802293D01*
X-20848Y-802242D01*
X-21140Y-802175D01*
X-21428Y-802094D01*
X-21711Y-801999D01*
X-21990Y-801889D01*
X-22263Y-801767D01*
X-22529Y-801630D01*
X-22788Y-801480D01*
X-23039Y-801318D01*
X-23282Y-801143D01*
X-23516Y-800957D01*
X-23740Y-800759D01*
X-23955Y-800550D01*
X-24158Y-800331D01*
X-24350Y-800101D01*
X-24531Y-799863D01*
X-24699Y-799616D01*
X-24855Y-799361D01*
X-24999Y-799098D01*
X-25129Y-798828D01*
X-25245Y-798553D01*
X-25347Y-798271D01*
X-25435Y-797986D01*
X-25509Y-797696D01*
X-25568Y-797402D01*
X-25613Y-797107D01*
X-25643Y-796809D01*
X-25658Y-796510D01*
Y-796211D01*
X-25643Y-795912D01*
X-25613Y-795615D01*
X-25568Y-795319D01*
X-25509Y-795026D01*
X-25435Y-794735D01*
X-25347Y-794450D01*
X-25245Y-794169D01*
X-25129Y-793893D01*
X-24999Y-793623D01*
X-24855Y-793361D01*
X-24699Y-793105D01*
X-24531Y-792858D01*
X-24350Y-792620D01*
X-24158Y-792391D01*
X-23955Y-792171D01*
X-23740Y-791962D01*
X-23516Y-791764D01*
X-23282Y-791578D01*
X-23039Y-791403D01*
X-22788Y-791241D01*
X-22529Y-791091D01*
X-22263Y-790955D01*
X-21990Y-790832D01*
X-21711Y-790723D01*
X-21428Y-790627D01*
X-21140Y-790546D01*
X-20848Y-790480D01*
X-20554Y-790428D01*
X-20257Y-790390D01*
X-19958Y-790368D01*
X-19659Y-790361D01*
X-16659D01*
X-16360Y-790368D01*
D02*
G37*
G36*
X-55862D02*
X-55564Y-790390D01*
X-55267Y-790428D01*
X-54972Y-790480D01*
X-54680Y-790546D01*
X-54392Y-790627D01*
X-54109Y-790723D01*
X-53830Y-790832D01*
X-53558Y-790955D01*
X-53292Y-791091D01*
X-53032Y-791241D01*
X-52781Y-791403D01*
X-52538Y-791578D01*
X-52304Y-791764D01*
X-52080Y-791962D01*
X-51866Y-792171D01*
X-51662Y-792391D01*
X-51470Y-792620D01*
X-51289Y-792858D01*
X-51121Y-793105D01*
X-50965Y-793361D01*
X-50822Y-793623D01*
X-50692Y-793893D01*
X-50576Y-794169D01*
X-50473Y-794450D01*
X-50385Y-794735D01*
X-50311Y-795026D01*
X-50252Y-795319D01*
X-50207Y-795615D01*
X-50178Y-795912D01*
X-50163Y-796211D01*
Y-796510D01*
X-50178Y-796809D01*
X-50207Y-797107D01*
X-50252Y-797402D01*
X-50311Y-797696D01*
X-50385Y-797986D01*
X-50473Y-798271D01*
X-50576Y-798553D01*
X-50692Y-798828D01*
X-50822Y-799098D01*
X-50965Y-799361D01*
X-51121Y-799616D01*
X-51289Y-799863D01*
X-51470Y-800101D01*
X-51662Y-800331D01*
X-51866Y-800550D01*
X-52080Y-800759D01*
X-52304Y-800957D01*
X-52538Y-801143D01*
X-52781Y-801318D01*
X-53032Y-801480D01*
X-53292Y-801630D01*
X-53558Y-801767D01*
X-53830Y-801889D01*
X-54109Y-801999D01*
X-54392Y-802094D01*
X-54680Y-802175D01*
X-54972Y-802242D01*
X-55267Y-802293D01*
X-55564Y-802331D01*
X-55862Y-802353D01*
X-56161Y-802361D01*
X-64161D01*
X-64460Y-802353D01*
X-64758Y-802331D01*
X-65055Y-802293D01*
X-65350Y-802242D01*
X-65641Y-802175D01*
X-65929Y-802094D01*
X-66213Y-801999D01*
X-66492Y-801889D01*
X-66764Y-801767D01*
X-67030Y-801630D01*
X-67289Y-801480D01*
X-67541Y-801318D01*
X-67784Y-801143D01*
X-68018Y-800957D01*
X-68242Y-800759D01*
X-68456Y-800550D01*
X-68660Y-800331D01*
X-68852Y-800101D01*
X-69033Y-799863D01*
X-69201Y-799616D01*
X-69357Y-799361D01*
X-69500Y-799098D01*
X-69630Y-798828D01*
X-69746Y-798553D01*
X-69848Y-798271D01*
X-69937Y-797986D01*
X-70010Y-797696D01*
X-70070Y-797402D01*
X-70114Y-797107D01*
X-70144Y-796809D01*
X-70159Y-796510D01*
Y-796211D01*
X-70144Y-795912D01*
X-70114Y-795615D01*
X-70070Y-795319D01*
X-70010Y-795026D01*
X-69937Y-794735D01*
X-69848Y-794450D01*
X-69746Y-794169D01*
X-69630Y-793893D01*
X-69500Y-793623D01*
X-69357Y-793361D01*
X-69201Y-793105D01*
X-69033Y-792858D01*
X-68852Y-792620D01*
X-68660Y-792391D01*
X-68456Y-792171D01*
X-68242Y-791962D01*
X-68018Y-791764D01*
X-67784Y-791578D01*
X-67541Y-791403D01*
X-67289Y-791241D01*
X-67030Y-791091D01*
X-66764Y-790955D01*
X-66492Y-790832D01*
X-66213Y-790723D01*
X-65929Y-790627D01*
X-65641Y-790546D01*
X-65350Y-790480D01*
X-65055Y-790428D01*
X-64758Y-790390D01*
X-64460Y-790368D01*
X-64161Y-790361D01*
X-56161D01*
X-55862Y-790368D01*
D02*
G37*
G36*
X-113580Y-794329D02*
Y-796749D01*
X-117280D01*
Y-800049D01*
X-113580D01*
Y-802329D01*
X-114080Y-802829D01*
X-122080D01*
X-122580Y-802329D01*
Y-794329D01*
X-122080Y-793829D01*
X-114080D01*
X-113580Y-794329D01*
D02*
G37*
G36*
X-97680Y-794329D02*
Y-802329D01*
X-98180Y-802829D01*
X-106180D01*
X-106680Y-802329D01*
Y-799909D01*
X-102980D01*
Y-796609D01*
X-106680D01*
Y-794329D01*
X-106180Y-793829D01*
X-98180D01*
X-97680Y-794329D01*
D02*
G37*
D16*
X-531949Y-715778D02*
D03*
D17*
X-632117Y-791209D02*
D03*
Y-778509D02*
D03*
Y-765809D02*
D03*
Y-753109D02*
D03*
Y-740409D02*
D03*
Y-727709D02*
D03*
Y-715009D02*
D03*
Y-702309D02*
D03*
Y-689609D02*
D03*
Y-676909D02*
D03*
Y-664209D02*
D03*
Y-651509D02*
D03*
Y-638809D02*
D03*
Y-626109D02*
D03*
X-452120Y-626110D02*
D03*
Y-638810D02*
D03*
Y-651510D02*
D03*
Y-664210D02*
D03*
Y-676910D02*
D03*
Y-689610D02*
D03*
Y-702310D02*
D03*
Y-715010D02*
D03*
Y-727710D02*
D03*
Y-740410D02*
D03*
Y-753110D02*
D03*
Y-765810D02*
D03*
Y-778510D02*
D03*
Y-791210D02*
D03*
D18*
X-599268Y-610910D02*
D03*
X-586568D02*
D03*
X-573868D02*
D03*
X-561169D02*
D03*
X-548469D02*
D03*
X-535769Y-610908D02*
D03*
X-523069D02*
D03*
X-510368D02*
D03*
X-497668D02*
D03*
X-484968D02*
D03*
D19*
X-273945Y-452625D02*
D03*
X-289935Y-452695D02*
D03*
D20*
X-139348Y-673640D02*
D03*
X-183350D02*
D03*
D21*
X-283049Y-730789D02*
D03*
X-263050Y-721289D02*
D03*
Y-740290D02*
D03*
X-283049Y-772700D02*
D03*
X-263050Y-763199D02*
D03*
Y-782200D02*
D03*
D22*
X-279400Y-808879D02*
D03*
Y-822880D02*
D03*
X-257810Y-808879D02*
D03*
Y-822880D02*
D03*
X-237490Y-808260D02*
D03*
Y-822260D02*
D03*
D23*
X-229350Y-691602D02*
D03*
X-291350Y-691602D02*
D03*
X-229350Y-654598D02*
D03*
X-291350Y-654598D02*
D03*
D24*
X-134620Y-503200D02*
D03*
Y-470699D02*
D03*
D25*
X-131826Y-418768D02*
D03*
X-97790D02*
D03*
X-114808D02*
D03*
X-80772D02*
D03*
X-63754D02*
D03*
D26*
X-184658Y-417987D02*
D03*
Y-373985D02*
D03*
D27*
X-203985Y-719360D02*
D03*
Y-732059D02*
D03*
Y-744760D02*
D03*
Y-757459D02*
D03*
Y-770160D02*
D03*
Y-782859D02*
D03*
Y-795559D02*
D03*
Y-808260D02*
D03*
X-146535Y-719360D02*
D03*
Y-732059D02*
D03*
Y-744760D02*
D03*
Y-757459D02*
D03*
Y-770160D02*
D03*
Y-782859D02*
D03*
Y-795559D02*
D03*
Y-808260D02*
D03*
D28*
X-181120Y-310420D02*
D03*
D29*
X-240520Y-333419D02*
D03*
Y-310420D02*
D03*
Y-287420D02*
D03*
M02*
