M48
;Layer_Color=9474304
;FILE_FORMAT=4:3
METRIC,LZ
;TYPE=PLATED
T01F00S00C0.300
T02F00S00C0.400
T04F00S00C0.800
T05F00S00C1.000
T06F00S00C1.100
T07F00S00C1.200
T08F00S00C1.600
T09F00S00C3.100
;TYPE=NON_PLATED
T10F00S00C0.700
%
T01
X-0081407Y-0085725
X-0080137Y-0083185
X-0039497
X-0038227Y-0085725
X-0040767
X-0035687
X-0033147
X-0031877Y-0083185
X-0005207Y-0085725
X-0007747Y-0080645
X-0009017Y-0078105
X-000889Y-0074676
X-0010287Y-0075565
X-0005334Y-0075565
X-0002667Y-0075565
X-0001397Y-0073025
X-0003937
Y-0067945
X-0002667Y-0065405
X-0001397Y-0062865
X-0006477
X-0009017
X-0011557
X-0014097
X-0016637
X-0015367Y-0060325
X-0014097Y-0057785
X-0011557
X-0009017
X-0007747Y-0055245
X-0010287
X-0012827
X-0015367
X-0014097Y-0052705
X-0011557
X-0009017
X-0006477
X-0003937
X-0002667Y-0055245
X-0005207Y-0050165
X-0003937Y-0047625
X-0005207Y-0045085
X-0003937Y-0042545
X-0010287Y-0045085
X-0012827
X-0015477Y-0042147
X-0016637Y-0047625
Y-0052705
Y-0057785
X-0021717
X-0024257
X-0026797
X-0029337
X-0028067Y-0055245
X-0025527
X-0022987
X-0020447
X-0021717Y-0052705
Y-0047625
X-0020447Y-0045085
X-0026797Y-0042545
X-0029337
X-0030607Y-0045085
X-0029337Y-0047625
Y-0052705
X-0026797
X-0025527Y-0050165
X-0030607Y-0055245
Y-0060325
Y-0065405
X-0033147
X-0035687
Y-0070485
X-0030607
X-0029464Y-0073101
X-0031877Y-0073025
X-0030607Y-0075565
X-0033147
X-0035687
X-0029337Y-0078105
X-0025273Y-007493
X-0025527Y-0070485
X-0020447
X-0017907
X-0015367
X-0012827
X-0010287
Y-0065405
X-0007747
Y-0060325
X-0005207
X-0010287
X-0012827Y-0065405
X-0015367
X-0016637Y-0067945
Y-0073025
X-0017907Y-0075565
X-0017196Y-0078283
X-0016307Y-0079553
X-0021971Y-0078232
X-0020447Y-0065405
X-0021717Y-0062865
X-0024257
X-0026797
X-0025527Y-0065405
X-0022987Y-0060325
X-0020447
X-0031877Y-0067945
X-0003937Y-0078105
X-0010287Y-0050165
X-0009017Y-0047625
X-0039497
X-0042037
X-0044577
X-0047117
X-0049657
X-0052197
X-0054737
X-0053467Y-0045085
X-0056007
X-0058547
Y-0050165
X-0056007
X-0053467
X-0055067Y-0052756
X-0056007Y-0055245
X-0058547
X-0050927
X-0048387
X-0047117Y-0052705
X-0044577
X-0042037
X-0039497
X-0038227Y-0050165
X-0040767
X-0043307
X-0045847
X-0048387
Y-0045085
X-0045847
X-0043307
X-0040767
X-0038227
X-0042037Y-0042545
X-0044577
X-0047117
X-0049657
X-0052197
X-0054737
X-0062357
X-0064897
X-0067437
X-0064897Y-0047625
X-0066167Y-0055245
X-0068707
X-0067437Y-0057785
X-0064897
X-0066167Y-0060325
X-0068707
X-0069215Y-0063017
X-0067691Y-0063221
X-0064897Y-0062865
Y-0067945
X-0067437
X-0066167Y-0070485
X-0068707
X-0071247
X-0073787
X-0072517Y-0073025
X-0075057
X-0067437
X-0066167Y-0075565
X-0058547
X-0056007
X-0053467
X-0050927
X-0047142Y-0075311
Y-0074066
X-0047168Y-0072796
X-0048387Y-0070485
X-0047117Y-0067945
X-0049657
X-0052197
X-0050927Y-0065405
X-0048387
X-0047117Y-0062865
X-0049759Y-0062916
X-0052197Y-0062865
X-0054737
X-0057277
X-0056007Y-0065405
X-0053467
X-0057277Y-0067945
X-0058547Y-0070485
X-0061082Y-0070226
X-0061062Y-0068961
Y-0067716
Y-0066446
X-0059817Y-0073025
X-0057277
X-0054051Y-0079375
X-0052527Y-0078486
X-0043307Y-0075565
X-0042037Y-0073025
X-0040767Y-0070485
X-0038227
Y-0075565
X-0040767Y-0080645
X-0042037Y-0062865
X-0040767Y-0060325
X-0043307
X-0045847
X-0047117Y-0057785
X-0049657
X-0042037
X-0039497
X-0038227Y-0055245
X-0040767
X-0043307
X-0072517Y-0057785
X-0075057
X-0073787Y-0060325
X-0072517Y-0062865
X-0073787Y-0065405
X-0068707
X-0071247Y-0080645
X-0073787
X-0075057Y-0052705
X-0077597
X-0080137
X-0078867Y-0050165
X-0076327
X-0077597Y-0047625
X-0080137
X-0082677
X-0081407Y-0045085
X-0082677Y-0042545
X-0085217
X-0086487Y-0045085
Y-0050165
X-0085217Y-0052705
X-0083947Y-0055245
X-0086487
X-0085217Y-0057785
X-0082677
X-0080137
X-0077597
X-0076327Y-0065405
X-0078867
X-0081407
X-0083947
X-0082677Y-0067945
X-0080137
X-0081407Y-0070485
X-0083947
X-0082677Y-0073025
X-0083947Y-0075565
X-0082677Y-0078105
X-0077597
Y-0073025
X-0076327Y-0070485
Y-0045085
Y-0040005
Y-0034925
X-0077597Y-0032385
X-0080137
X-0081407Y-0029845
X-0080137Y-0027305
X-0077597
X-0076327Y-0024765
X-0078867
X-0081407
X-0083947
X-0086487
X-0085217Y-0022225
X-0082677
X-0080137
X-0077597
X-0076327Y-0019685
X-0078867
X-0081407
X-0083947
X-0086487
Y-0014605
X-0083947
X-0081407
X-0082677Y-0012065
X-0081407Y-0009525
X-0080137Y-0006985
X-0082677
X-0085217
X-0086487Y-0009525
X-0076327
Y-0014605
X-0082677Y-0017145
Y-0027305
X-0085217
X-0086487Y-0029845
Y-0034925
X-0081407
Y-0040005
X-0086487
X-0076327Y-0029845
X-0078867Y-0004445
X-0081407
X-0071247
X-0068707
X-0067437Y-0006985
X-0066167Y-0009525
X-0063627
X-0061087
X-0059817Y-0006985
X-0057277
X-0058547Y-0004445
X-0063627
Y-0014605
X-0061087
X-0059817Y-0012065
Y-0017145
X-0061087Y-0019685
X-0063627
X-0066167
X-0068707
X-0069977Y-0022225
X-0064897
X-0063627Y-0024765
X-0061087
X-0059817Y-0022225
Y-0027305
X-0062357
X-0064897
X-0067437
X-0066167Y-0024765
Y-0029845
X-0064897Y-0032385
X-0062357
X-0059817
X-0057277
X-0054737
X-0053467Y-0029845
X-0052197Y-0027305
X-0049657
X-0047117
X-0045847Y-0029845
X-0048387
X-0047117Y-0032385
X-0044577
X-0042037
X-0040767Y-0029845
X-0042037Y-0027305
X-0040767Y-0024765
X-0043307
X-0042037Y-0022225
X-0039497
X-0040767Y-0019685
X-0043307
X-0042037Y-0017145
X-0040767Y-0014605
X-0038227
X-0039497Y-0012065
X-0040767Y-0009525
X-0043307
Y-0014605
X-0048387
X-0047117Y-0017145
X-0053467Y-0019685
Y-0024765
X-0054737Y-0027305
X-0058547Y-0029845
X-0061087
X-0062357Y-0037465
X-0064897
X-0067437
X-0066167Y-0040005
X-0068707
X-0067437Y-0032385
X-0072517
X-0075057
X-0073787Y-0034925
X-0075057Y-0027305
X-0073787Y-0019685
X-0075057Y-0017145
X-0073787Y-0014605
X-0072517Y-0006985
X-0068707Y-0009525
X-0045847Y-0004445
X-0039497Y-0006985
X-0036957
Y-0027305
X-0040767Y-0034925
X-0043307
X-0045847
X-0044577Y-0037465
X-0042037
X-0040767Y-0040005
X-0043307
X-0045847
X-0048387
X-0047117Y-0037465
X-0049657
X-0052197
X-0054737
X-0053467Y-0040005
X-0056007
X-0049657Y-0032385
X-0034417
X-0035687Y-0034925
X-0030607
X-0028067
X-0025527
X-0026797Y-0032385
X-0028067Y-0029845
X-0030607
X-0028067Y-0024765
X-0025527
X-0022987
X-0020447
X-0017907
X-0015367
X-0012827
X-0011557Y-0022225
X-0009017
X-0006477
X-0003937
X-0005207Y-0019685
X-0007747
X-0010287
X-0012827
X-0015367
X-0017907
X-0020447
X-0022987
X-0025527
X-0024257Y-0022225
X-0026797
Y-0017145
X-0029337
X-0030607Y-0019685
X-0033147
X-0031877Y-0022225
X-0034417
X-0033147Y-0024765
X-0035687
X-0034417Y-0017145
X-0033147Y-0014605
X-0034417Y-0012065
X-0033147Y-0009525
X-0030607
X-0028067
X-0025527
X-0024257Y-0006985
X-0021717
X-0020447Y-0004445
X-0017907
X-0015367
X-0012827
X-0007747
Y-0009525
X-0010287
X-0012827
X-0015367
X-0017907
X-0012827Y-0014605
X-0007747
X-0005207
X-0003937Y-0012065
Y-0017145
X-0006477
X-0009017
Y-0027305
X-0006477
X-0003937
X-0005207Y-0024765
X-0003937Y-0032385
Y-0037465
X-0006477
X-0009017
X-0011557
X-0014097
X-0015367Y-0040005
X-0015477Y-0041588
X-0015189Y-0041885
X-0015782Y-0041893
X-0017907Y-0040005
X-0020447
X-0022987
X-0025527
X-0028067
X-0026797Y-0037465
X-0031877
X-0020447Y-0034925
X-0017907
X-0021717Y-0032385
X-0020447Y-0029845
X-0014097Y-0022225
X-0026797Y-0012065
X-0029337
Y-0006985
X-0026797
X-0031877
X-0034417
X-0035687Y-0009525
X-0021717Y-0001905
X-0009017
X-0006477
X-0044577
X-0047117
X-0049657
X-0052197
X-0054737
X-0057277
X-0059817
X-0067437
X-0069977
X-0072517
X-0075057
X-0080137
T02
X-0086194Y-0084978
X-0086789Y-0083541
X-0086194Y-0082104
X-008332
X-0082725Y-0083541
X-008332Y-0084978
X-0084757Y-0085573
X-0004437Y-0084978
X-0003Y-0085573
X-0001563Y-0084978
X-0000968Y-0083541
X-0001563Y-0082104
X-0004437
X-0005032Y-0083541
X-0003Y-0081509
X-0084757Y-0081509
X-0084757Y-0005032
X-0086194Y-0004437
X-0086789Y-0003
X-0082725
X-008332Y-0004437
X-0004437Y-0004437
X-0005032Y-0003
X-0003Y-0005032
X-0001563Y-0004437
X-0000968Y-0003
X-0001563Y-0001563
X-0003Y-0000968
X-0004437Y-0001563
X-008332Y-0001563
X-0084757Y-0000968
X-0086194Y-0001563
T04
X-0033782Y-007339
Y-007139
X-0029083Y-0049838
X-0024003
X-0006858Y-0067364
X-0001778
X-0024638Y-0041837
Y-0036757
T05
X-0036195Y-0082931
X-002667Y-0059664
Y-0054664
X-0018335Y-0059617
X-0013335
X-0036195Y-0077851
X-0081661Y-0054918
Y-0049918
X-0073787Y-0028702
X-0068787
X-0053721Y-0035052
X-0048721
X-0034671Y-0038662
X-0029591
X-0031623Y-0015922
Y-0010922
T06
X-0073025Y-0054737
Y-0052197
Y-0049657
Y-0047117
Y-0044577
Y-0042037
X-0060325
Y-0044577
Y-0047117
Y-0049657
Y-0052197
Y-0054737
X-0077597Y-0020193
Y-0017653
Y-0015113
Y-0012573
Y-0010033
Y-0007493
Y-0004953
Y-0002413
X-0064897
Y-0004953
Y-0007493
Y-0010033
Y-0012573
Y-0015113
Y-0017653
Y-0020193
X-0057531Y-0019558
Y-0017018
Y-0014478
Y-0011938
Y-0009398
X-0044831
Y-0011938
Y-0014478
Y-0017018
Y-0019558
Y-0022098
Y-0024638
Y-0027178
X-0057531
Y-0024638
Y-0022098
X-0060325Y-0036957
Y-0039497
X-0073025
Y-0036957
X-002413Y-0023622
X-002159
X-001905
X-001651
X-001397
X-001143
X-000889
X-000635
Y-0010922
X-000889
X-001143
X-001397
X-001651
X-001905
X-002159
X-002413
T07
X-0077597Y-0082858
X-0075057
X-0072517
X-0069977
Y-0074676
X-0072517
X-0075057
Y-0067818
X-0072517
X-0069977
X-0077597
Y-0074676
X-0080137
X-0084836Y-0038252
Y-0035712
Y-0033172
Y-0030632
Y-0018288
Y-0015748
Y-0013208
Y-0010668
X-0055245Y-0004318
X-0052705
X-0050165
X-0047625
X-001905Y-0003118
X-001651
X-001397
X-001143
T08
X-0004445Y-0062347
Y-0057267
T09
X-0084757Y-0083541
X-0003Y-0083541
X-0084757Y-0003
X-0003Y-0003
T10
X-0005496Y-0078201
Y-0072421
M30
