G04*
G04 #@! TF.GenerationSoftware,Altium Limited,Altium Designer,24.1.2 (44)*
G04*
G04 Layer_Color=16711935*
%FSLAX44Y44*%
%MOMM*%
G71*
G04*
G04 #@! TF.SameCoordinates,B6A7EAFD-4425-4944-9F2F-193BF1EFC545*
G04*
G04*
G04 #@! TF.FilePolarity,Negative*
G04*
G01*
G75*
%ADD49C,5.1500*%
%ADD50C,0.5500*%
%ADD51C,1.7016*%
%ADD52O,2.3500X1.7500*%
%ADD53R,2.3500X1.7500*%
%ADD54C,1.9500*%
%ADD55O,1.9000X1.3000*%
%ADD56O,2.1000X1.2000*%
%ADD57C,0.8500*%
%ADD58C,1.4016*%
%ADD59C,2.5016*%
%ADD60C,1.7500*%
%ADD61R,1.7500X1.7500*%
%ADD62R,1.7500X1.7500*%
%ADD63O,1.7500X2.3500*%
%ADD64R,1.7500X2.3500*%
D49*
X-847570Y-30000D02*
D03*
X-847570Y-835410D02*
D03*
X-30000Y-30000D02*
D03*
Y-835409D02*
D03*
D50*
X-827250Y-30000D02*
D03*
X-833202Y-15632D02*
D03*
X-847570Y-9680D02*
D03*
X-861938Y-15632D02*
D03*
X-867890Y-30000D02*
D03*
X-861938Y-44369D02*
D03*
X-847570Y-50320D02*
D03*
X-833202Y-44369D02*
D03*
X-827250Y-835410D02*
D03*
X-833202Y-821041D02*
D03*
X-847570Y-815090D02*
D03*
X-861938Y-821041D02*
D03*
X-867890Y-835410D02*
D03*
X-861938Y-849778D02*
D03*
X-847570Y-855730D02*
D03*
X-833202Y-849778D02*
D03*
X-9680Y-30000D02*
D03*
X-15632Y-15632D02*
D03*
X-30000Y-9680D02*
D03*
X-44368Y-15632D02*
D03*
X-50320Y-30000D02*
D03*
X-44368Y-44368D02*
D03*
X-30000Y-50320D02*
D03*
X-15632Y-44368D02*
D03*
Y-849778D02*
D03*
X-30000Y-855730D02*
D03*
X-44368Y-849778D02*
D03*
X-50320Y-835409D02*
D03*
X-44368Y-821041D02*
D03*
X-30000Y-815090D02*
D03*
X-15632Y-821041D02*
D03*
X-9680Y-835409D02*
D03*
D51*
X-316230Y-159220D02*
D03*
Y-109220D02*
D03*
X-816610Y-499180D02*
D03*
Y-549179D02*
D03*
X-266700Y-596639D02*
D03*
Y-546640D02*
D03*
X-361950Y-829310D02*
D03*
Y-778510D02*
D03*
X-183350Y-596170D02*
D03*
X-133350D02*
D03*
X-295910Y-386619D02*
D03*
X-346710D02*
D03*
X-737870Y-287020D02*
D03*
X-687870D02*
D03*
X-537210Y-350520D02*
D03*
X-487210D02*
D03*
D52*
X-848360Y-357124D02*
D03*
Y-331724D02*
D03*
Y-382524D02*
D03*
Y-182880D02*
D03*
Y-132080D02*
D03*
Y-157480D02*
D03*
D53*
Y-306324D02*
D03*
Y-106680D02*
D03*
D54*
X-246380Y-367570D02*
D03*
Y-418369D02*
D03*
X-240030Y-498380D02*
D03*
X-290830D02*
D03*
X-68580Y-673640D02*
D03*
X-17780D02*
D03*
D55*
X-18160Y-709860D02*
D03*
Y-796360D02*
D03*
D56*
X-60160Y-709860D02*
D03*
X-60160Y-796360D02*
D03*
D57*
X-54959Y-724209D02*
D03*
Y-782010D02*
D03*
D58*
X-337820Y-733900D02*
D03*
Y-713900D02*
D03*
D59*
X-44450Y-572674D02*
D03*
Y-623475D02*
D03*
D60*
X-448310Y-144780D02*
D03*
Y-119380D02*
D03*
Y-93980D02*
D03*
X-575310Y-271780D02*
D03*
X-448310Y-220980D02*
D03*
Y-195580D02*
D03*
Y-170180D02*
D03*
Y-246380D02*
D03*
X-575310Y-93980D02*
D03*
Y-119380D02*
D03*
Y-144780D02*
D03*
Y-170180D02*
D03*
Y-195580D02*
D03*
Y-220980D02*
D03*
Y-246380D02*
D03*
X-603250Y-420370D02*
D03*
Y-394970D02*
D03*
Y-369570D02*
D03*
X-730250Y-547370D02*
D03*
X-603250Y-496570D02*
D03*
Y-471170D02*
D03*
Y-445770D02*
D03*
Y-521970D02*
D03*
X-730250Y-369570D02*
D03*
Y-394970D02*
D03*
Y-420370D02*
D03*
Y-445770D02*
D03*
Y-471170D02*
D03*
Y-496570D02*
D03*
Y-521970D02*
D03*
X-648970Y-74930D02*
D03*
Y-49530D02*
D03*
Y-24130D02*
D03*
X-775970Y-201930D02*
D03*
X-648970Y-151130D02*
D03*
Y-125730D02*
D03*
Y-100330D02*
D03*
Y-176530D02*
D03*
X-775970Y-24130D02*
D03*
Y-49530D02*
D03*
Y-74930D02*
D03*
Y-100330D02*
D03*
Y-125730D02*
D03*
Y-151130D02*
D03*
Y-176530D02*
D03*
X-114300Y-236220D02*
D03*
X-88900D02*
D03*
X-63500D02*
D03*
X-241300Y-109220D02*
D03*
X-190500Y-236220D02*
D03*
X-165100D02*
D03*
X-139700D02*
D03*
X-215900D02*
D03*
X-63500Y-109220D02*
D03*
X-88900D02*
D03*
X-114300D02*
D03*
X-139700D02*
D03*
X-165100D02*
D03*
X-190500D02*
D03*
X-215900D02*
D03*
D61*
X-448310Y-271780D02*
D03*
X-603250Y-547370D02*
D03*
X-648970Y-201930D02*
D03*
D62*
X-241300Y-236220D02*
D03*
D63*
X-699770Y-828579D02*
D03*
X-750570D02*
D03*
X-725170D02*
D03*
X-190500Y-31180D02*
D03*
X-139700D02*
D03*
X-165100D02*
D03*
X-775970Y-678180D02*
D03*
X-725170D02*
D03*
X-750570D02*
D03*
X-801370Y-746760D02*
D03*
X-775970D02*
D03*
X-725170D02*
D03*
X-750570D02*
D03*
X-476250Y-43180D02*
D03*
X-527050D02*
D03*
X-501650D02*
D03*
D64*
X-775970Y-828579D02*
D03*
X-114300Y-31180D02*
D03*
X-699770Y-678180D02*
D03*
Y-746760D02*
D03*
X-552450Y-43180D02*
D03*
M02*
